<?xml version="1.0" standalone="no"?>
<!DOCTYPE svg PUBLIC "-//W3C//DTD SVG 1.1//EN" "http://www.w3.org/Graphics/SVG/1.1/DTD/svg11.dtd">
<svg xmlns="http://www.w3.org/2000/svg">
<defs >
<font id="PlayfairDisplay" horiz-adv-x="579" ><font-face
    font-family="Playfair Display SemiBold"
    units-per-em="1000"
    panose-1="0 0 0 0 0 0 0 0 0 0"
    ascent="1082"
    descent="-251"
    alphabetic="0" />
<glyph unicode=" " horiz-adv-x="239" />
<glyph unicode="!" horiz-adv-x="280" d="M140 782Q168 782 189 761T210 698Q210 656 201 601T181 481T160 343T149 196V196H131Q129 271 120 343T99 480T79 601T70 698Q70 739 90 760T140 782ZM140 132Q174 132 196 112T218 59Q218 26 196 6T140 -14Q105 -14
84 6T62 59Q62 92 83 112T140 132Z" />
<glyph unicode="&quot;" horiz-adv-x="346" d="M101 730Q124 730 139 714T155 670Q155 639 149 613T131 553T108 468H94Q83 517 72 550T54 610T47 669Q47 697 63 713T101 730ZM244 730Q267 730 282 714T298 670Q298 639 292 613T274 553T251 468H237Q226 517 215
550T197 610T190 669Q190 697 206 713T244 730Z" />
<glyph unicode="#" horiz-adv-x="626" d="M465 602L368 101H348L445 602H465ZM547 267L543 247H42L46 267H547ZM278 602L181 101H161L258 602H278ZM583 454L580 434H79L82 454H583Z" />
<glyph unicode="$" horiz-adv-x="557" d="M268 720Q324 720 354 708T406 682Q418 675 425 672T440 668Q456 668 462 712H485Q484 693 483 668T481 602T480 492H457Q451 550 432 597T378 671T282 699Q225 699 194 671T162 598Q162 572 171 551T202 508T259 463T346
405Q396 374 435 343T496 273T519 179Q519 114 487 71T401 7T283 -14Q224 -14 191 -1T136 23Q123 30 114 33T96 37Q80 37 74 -7H51Q53 16 53 47T54 127T55 253H78Q85 173 106 118T169 36T279 8Q341 8 376 36T412 121Q412 145 404 165T375 206T321 252T234 312Q187
343 146 374T81 445T56 541Q56 603 86 642T164 701T268 720ZM248 840V-132H228V840H248ZM341 840V-132H321V840H341Z" />
<glyph unicode="%" horiz-adv-x="733" d="M192 761Q263 761 306 718T350 598Q350 522 306 476T192 430Q121 430 78 473T34 593Q34 668 79 714T192 761ZM538 299Q469 299 469 150Q469 77 489 41T542 4Q610 4 610 152Q610 226 591 262T538 299ZM540 317Q611 317
654 274T698 154Q698 78 654 32T540 -14Q469 -14 426 29T382 149Q382 224 427 270T540 317ZM190 743Q121 743 121 594Q121 521 141 485T194 448Q262 448 262 596Q262 670 243 706T190 743ZM654 824L673 811L88 -55L69 -42L654 824Z" />
<glyph unicode="&amp;" horiz-adv-x="877" d="M323 707Q361 707 385 701T427 684Q449 671 464 652T479 607Q479 578 458 561T409 544Q383 544 364 559T344 602Q344 627 360 645T404 669Q397 678 379 684T335 691Q283 691 248 659T213 564Q213 540 221 513T256
458Q273 462 288 463T314 465Q352 465 352 440Q352 430 344 425T324 420Q306 420 287 429T257 444Q206 423 175 385T143 282Q143 215 178 170T278 103T426 80Q477 80 525 91T613 126T675 181T698 257Q698 274 692 300T666 352T604 394L612 403Q672 385 701 338T731
229Q731 163 690 108T575 19T399 -14Q297 -14 217 16T92 102T46 235Q46 290 68 329T123 393T189 433T243 452Q194 472 164 504T134 579Q134 609 148 632T189 673T249 698T323 707ZM706 722Q773 722 817 686T861 583Q861 515 815 476T694 417Q676 410 650 402T595
386T539 369T494 354Q431 338 394 318T357 261Q357 236 373 218T413 190T460 181Q472 181 487 184T507 195Q485 201 471 216T457 255Q457 284 478 300T529 316Q561 316 579 299T598 253Q598 223 579 203T530 174T464 164Q428 164 396 177T344 218T324 289Q324 358
375 398T518 460Q542 467 573 475T638 492T700 513Q764 532 796 555T828 611Q828 652 794 678T714 705Q704 705 697 704T686 699Q706 690 716 674T727 641Q727 614 707 598T656 582Q627 582 607 598T586 643Q586 669 602 687T645 713T706 722Z" />
<glyph unicode="&apos;" horiz-adv-x="202" d="M101 730Q124 730 139 714T155 670Q155 639 149 613T131 553T108 468H94Q83 517 72 550T54 610T47 669Q47 697 63 713T101 730Z" />
<glyph unicode="(" horiz-adv-x="310" d="M278 806Q165 717 102 595T38 312Q38 151 101 29T278 -182L292 -169Q220 -66 189 49T158 312Q158 459 189 575T292 793L278 806Z" />
<glyph unicode=")" horiz-adv-x="310" d="M32 806Q145 717 208 595T272 312Q272 151 209 29T32 -182L18 -169Q90 -66 121 49T152 312Q152 459 121 575T18 793L32 806Z" />
<glyph unicode="*" horiz-adv-x="484" d="M355 636Q381 651 399 645T425 623Q434 609 430 591T400 558Q375 544 338 538T243 517L241 520Q280 560 305 591T355 636ZM243 520Q298 507 337 500T401 479Q427 464 430 446T425 412Q417 398 400 392T356 401Q331 415
307 445T242 517L243 520ZM244 518Q260 465 273 427T288 361Q287 331 273 319T242 307Q226 307 212 318T198 361Q198 390 211 426T241 518H244ZM241 519L243 516Q205 476 179 445T129 400Q103 385 86 391T60 413Q51 427 54 444T84 478Q109 492 147 498T241 519ZM128
635Q153 621 178 592T242 519L241 516Q188 529 148 536T84 557Q58 572 55 590T60 624Q68 638 85 644T128 635ZM242 729Q259 729 272 717T286 675Q286 647 273 611T243 518H240Q225 571 211 609T197 675Q197 705 211 717T242 729Z" />
<glyph unicode="+" horiz-adv-x="578" d="M308 606V370H540V340H308V105H272V340H39V370H272V606H308Z" />
<glyph unicode="," horiz-adv-x="268" d="M130 132Q153 132 169 123T197 98Q208 82 212 61T217 20Q217 -29 192 -71T113 -138L104 -120Q133 -107 154 -82T179 -28Q183 -10 179 6Q159 -14 127 -14Q96 -14 75 5T54 59Q54 91 75 111T130 132Z" />
<glyph unicode="-" horiz-adv-x="487" d="M424 307V233H63V307H424Z" />
<glyph unicode="." horiz-adv-x="264" d="M132 132Q166 132 188 112T210 59Q210 26 188 6T132 -14Q97 -14 76 6T54 59Q54 92 75 112T132 132Z" />
<glyph unicode="/" horiz-adv-x="370" d="M338 722L66 -14H33L305 722H338Z" />
<glyph unicode="0" horiz-adv-x="630" d="M320 531Q397 531 456 498T548 406T582 267Q582 187 548 123T452 23T309 -14Q234 -14 175 18T81 111T47 251Q47 330 81 393T176 493T320 531ZM311 513Q254 513 217 445T180 254Q180 164 199 109T250 29T318 4Q376 4 412
73T449 264Q449 354 430 408T380 488T311 513Z" />
<glyph unicode="1" horiz-adv-x="379" d="M273 528V99Q273 53 291 37T353 21V0Q333 1 295 2T215 4Q165 4 120 3T49 0V21Q95 21 121 37T147 103V347Q147 395 138 418T106 448T43 455V477Q124 479 177 490T273 528Z" />
<glyph unicode="2" horiz-adv-x="509" d="M264 531Q339 531 382 498T426 404Q426 355 397 315T324 239T236 171T163 105H376Q417 105 428 115T443 152H462Q462 90 463 56T466 -5Q453 -2 408 -1T317 0H45V19Q74 49 115 85T196 166T262 262T289 375Q289 429 265
454T193 479Q152 479 119 458T59 395L43 406Q71 455 123 493T264 531Z" />
<glyph unicode="3" horiz-adv-x="475" d="M240 531Q309 531 355 501T402 416Q402 378 378 345T313 288T217 251Q278 252 328 236T408 185T438 98Q438 41 402 -5T306 -83T175 -133T32 -151V-132Q80 -130 128 -115T217 -71T282 0T307 98Q307 157 279 195T202 237Q187
231 175 226T151 221Q134 221 134 236Q134 246 143 251T164 256Q172 256 180 255T199 253Q241 283 258 318T276 390Q276 436 252 457T188 479Q148 479 114 459T56 397L39 406Q56 439 81 467T146 513T240 531Z" />
<glyph unicode="4" horiz-adv-x="516" d="M368 531L372 505L71 105L79 133H394Q435 133 446 143T461 180H480Q480 123 481 93T484 37Q475 39 447 40T384 41T319 42H11V63L368 531ZM384 531V-141H280V401L368 531H384Z" />
<glyph unicode="5" horiz-adv-x="445" d="M368 559Q368 496 369 461T372 398Q359 401 317 402T233 403H95L80 225Q104 239 137 250T220 261Q317 261 363 216T409 105Q409 47 376 0T289 -80T168 -130T35 -148V-130Q96 -129 151 -104T242 -27T278 97Q278 160 248
194T160 229Q132 229 113 222T72 204L60 212L87 520Q98 518 112 517T141 516H288Q322 516 333 525T347 559H368Z" />
<glyph unicode="6" horiz-adv-x="547" d="M429 723L433 703Q389 689 345 665T264 594T205 469T183 268Q183 167 198 110T237 29T285 6Q322 6 351 54T381 215Q381 322 354 366T288 411Q270 411 247 401T205 368T177 305H167Q174 356 199 385T257 427T323 440Q374
440 417 414T487 340T514 222Q514 147 481 94T394 13T274 -14Q170 -14 110 60T50 270Q50 361 74 431T139 552T230 639T332 694T429 723Z" />
<glyph unicode="7" horiz-adv-x="439" d="M25 521Q39 518 84 517T174 516H436V495Q415 448 386 395T327 282T279 151T261 -2Q261 -12 262 -27T264 -57T265 -82Q265 -108 249 -128T200 -148Q168 -148 153 -126T137 -71Q137 -11 156 46T206 158T273 265T343 365T403
459L379 406H115Q74 406 63 396T48 359H29Q29 422 28 458T25 521Z" />
<glyph unicode="8" horiz-adv-x="547" d="M281 722Q361 722 414 685T467 583Q467 527 427 485T320 406L312 420Q340 450 351 492T363 573Q363 633 340 668T272 704Q237 704 215 680T193 613Q193 569 215 533T273 464T348 401T422 337T480 264T503 175Q503 120
473 77T389 10T267 -14Q209 -14 159 5T77 62T46 156Q46 229 97 280T220 362L228 348Q189 315 174 269T158 173Q158 128 169 90T205 28T273 4Q321 4 351 35T382 119Q382 167 360 204T304 274T231 338T158 402T101 474T79 562Q79 613 107 649T181 703T281 722Z" />
<glyph unicode="9" horiz-adv-x="538" d="M271 531Q376 531 435 460T495 258Q495 177 471 114T407 4T317 -75T216 -125T120 -150L116 -130Q159 -118 202 -96T282 -32T340 80T362 261Q362 358 347 412T308 488T261 511Q223 511 194 463T164 302Q164 194 191 150T257
106Q276 106 298 116T341 149T368 212H378Q372 161 347 132T288 90T222 77Q172 77 128 103T58 177T31 294Q31 370 64 423T151 503T271 531Z" />
<glyph unicode=":" horiz-adv-x="282" d="M141 530Q175 530 197 510T219 457Q219 424 197 404T141 384Q106 384 85 404T63 457Q63 490 84 510T141 530ZM141 132Q175 132 197 112T219 59Q219 26 197 6T141 -14Q106 -14 85 6T63 59Q63 92 84 112T141 132Z" />
<glyph unicode=";" horiz-adv-x="293" d="M141 132Q164 132 180 123T208 98Q219 82 223 61T228 20Q228 -29 203 -71T124 -138L115 -120Q144 -107 165 -82T190 -28Q194 -10 190 6Q170 -14 138 -14Q107 -14 86 5T65 59Q65 91 86 111T141 132ZM147 530Q181 530 203
510T225 457Q225 424 203 404T147 384Q112 384 91 404T69 457Q69 490 90 510T147 530Z" />
<glyph unicode="&lt;" horiz-adv-x="604" d="M516 582L533 546L124 355L533 164L516 128L29 355L516 582Z" />
<glyph unicode="=" horiz-adv-x="639" d="M570 440V410H69V440H570ZM570 300V270H69V300H570Z" />
<glyph unicode="&gt;" horiz-adv-x="604" d="M88 582L71 546L480 355L71 164L88 128L575 355L88 582Z" />
<glyph unicode="?" horiz-adv-x="491" d="M229 782Q332 782 395 734T459 602Q459 517 392 462T214 380V234H194V389Q255 414 284 444T324 509T334 583Q334 678 299 720T206 762Q180 762 155 756T116 733Q140 726 153 710T167 667Q167 638 147 620T95 601Q67 601
49 620T31 665Q31 692 46 712T85 746Q108 760 144 771T229 782ZM206 132Q240 132 262 112T284 59Q284 26 262 6T206 -14Q171 -14 150 6T128 59Q128 92 149 112T206 132Z" />
<glyph unicode="@" horiz-adv-x="882" d="M533 668Q621 668 692 640T806 552T849 393Q849 309 822 241T750 125T655 52T555 26Q516 26 499 41T480 80T483 126T493 166L553 464Q582 464 612 467T668 478L587 115Q578 83 582 68T610 57Q640 63 677 88T749 155T806
258T829 394Q829 487 789 543T681 624T534 650Q441 650 357 610T208 499T104 338T66 145Q66 42 105 -21T214 -114T370 -143Q424 -143 475 -131T576 -89L583 -102Q546 -128 491 -144T369 -161Q275 -161 202 -129T88 -30T46 143Q46 244 83 338T188 506T343 624T533
668ZM469 478Q497 478 515 465T542 430T546 378L536 372Q538 393 533 410T517 437T486 447Q459 447 434 422T388 354T356 260T344 156Q344 109 355 89T389 68Q424 68 456 118T512 258L519 242Q498 164 473 117T415 48T341 26Q288 26 259 59T230 153Q230 208 250
265T304 370T380 448T469 478Z" />
<glyph unicode="A" horiz-adv-x="655" d="M353 711L596 84Q611 48 628 35T661 20V0Q635 2 599 2T524 3Q480 3 442 3T380 0V20Q431 22 445 37T439 104L263 579L281 601L121 186Q95 120 96 85T120 35T185 20V0Q153 2 123 2T63 3Q41 3 22 3T-13 0V20Q9 25 30 46T72
119L301 711Q313 710 327 710T353 711ZM440 288V268H142L152 288H440Z" />
<glyph unicode="B" horiz-adv-x="655" d="M36 708Q61 707 100 706T178 705Q227 705 271 706T333 707Q451 707 509 663T568 550Q568 515 550 480T491 417T385 375V373Q473 365 524 338T598 273T620 194Q620 103 550 52T356 0Q334 0 289 1T180 3Q139 3 100 3T36
0V20Q69 22 85 28T107 52T113 106V602Q113 639 108 656T86 680T36 688V708ZM316 688Q275 688 263 671T250 602V106Q250 54 264 39T321 23Q403 23 439 68T476 198Q476 275 437 317T306 359H215Q215 359 215 367T215 376H301Q352 376 380 398T418 458T428 539Q428
613 403 650T316 688Z" />
<glyph unicode="C" horiz-adv-x="700" d="M388 722Q454 722 496 703T572 657Q592 642 602 653T617 708H640Q638 670 637 615T636 470H613Q607 515 600 545T581 598T546 640Q519 670 482 684T403 699Q351 699 313 672T249 597T211 486T198 352Q198 279 211 217T251
108T317 35T409 9Q446 9 485 23T549 66Q582 96 594 137T613 248H636Q636 154 637 97T640 0H617Q613 43 604 54T572 51Q535 25 494 6T387 -14Q285 -14 208 29T89 153T46 348Q46 460 90 544T211 675T388 722Z" />
<glyph unicode="D" horiz-adv-x="758" d="M333 708Q525 708 617 619T710 362Q710 253 665 172T533 45T324 0Q302 0 258 1T180 3Q139 3 100 3T36 0V20Q69 22 85 28T107 52T113 106V602Q113 639 108 656T86 680T36 688V708Q61 707 100 706T178 705Q214 706 259 707T333
708ZM324 690Q278 690 264 673T250 604V104Q250 52 264 35T325 18Q418 18 470 57T544 173T566 358Q566 526 512 608T324 690Z" />
<glyph unicode="E" horiz-adv-x="625" d="M559 708Q555 667 554 629T552 570Q552 551 553 534T555 504H532Q524 573 506 612T458 668T378 685H323Q293 685 277 680T256 659T250 610V98Q250 66 255 50T277 28T323 23H380Q431 23 465 42T521 104T552 224H575Q572
193 572 144Q572 123 573 83T579 0Q528 2 464 2T350 3Q318 3 264 3T150 3T36 0V20Q69 22 85 28T107 52T113 106V602Q113 639 108 656T86 680T36 688V708Q89 707 149 706T264 705T350 705Q396 705 454 705T559 708ZM398 366Q398 366 398 356T398 346H220Q220 346
220 356T220 366H398ZM427 498Q423 441 423 411T424 356Q424 331 425 301T430 214H407Q402 248 392 278T359 327T294 346V366Q336 366 357 388T389 441T404 498H427Z" />
<glyph unicode="F" horiz-adv-x="585" d="M559 708Q555 665 554 625T552 564Q552 541 553 521T555 486H532Q521 561 502 604T451 666T366 685H323Q293 685 277 680T256 659T250 610V110Q250 72 258 53T289 28T355 21V0Q326 2 280 2T185 3Q143 3 104 3T36 0V20Q69
22 85 28T107 52T113 106V602Q113 639 108 656T86 680T36 688V708Q89 707 149 706T264 705T350 705Q396 705 454 705T559 708ZM408 360Q408 360 408 350T408 340H220Q220 340 220 350T220 360H408ZM431 492Q427 435 427 405T428 350Q428 325 429 295T434 208H411Q407
242 396 272T363 321T298 340V360Q340 360 361 382T393 435T408 492H431Z" />
<glyph unicode="G" horiz-adv-x="724" d="M395 722Q462 722 504 703T581 657Q593 647 601 647Q620 647 626 708H649Q647 670 646 615T645 470H622Q615 524 602 567T555 640Q529 668 490 683T410 699Q357 699 318 672T252 597T212 487T199 353Q199 173 251 90T406
6Q434 6 454 13T488 29Q504 40 509 52T514 82V180Q514 224 506 245T477 275T413 284V304Q433 303 460 303T518 302T574 301Q613 301 645 302T698 304V284Q668 282 660 268T651 198V0H631Q630 17 623 37T602 57Q595 57 586 54T555 38Q520 15 481 1T394 -14Q226 -14
137 81T47 344Q47 459 92 544T215 675T395 722Z" />
<glyph unicode="H" horiz-adv-x="786" d="M458 0V20Q491 22 507 28T529 52T535 106V602Q535 639 530 656T508 680T458 688V708Q485 707 525 706T605 705Q649 705 687 706T749 708V688Q717 687 701 681T678 657T672 602V106Q672 70 678 52T700 28T749 20V0Q726
2 688 2T605 3Q565 3 525 3T458 0ZM36 0V20Q69 22 85 28T107 52T113 106V602Q113 639 108 656T86 680T36 688V708Q61 707 100 706T184 705Q224 705 263 706T327 708V688Q295 687 279 681T256 657T250 602V106Q250 70 256 52T278 28T327 20V0Q302 2 263 2T184 3Q139
3 100 3T36 0ZM195 346V366H590V346H195Z" />
<glyph unicode="I" horiz-adv-x="364" d="M327 708V688Q295 687 279 681T256 657T250 602V106Q250 70 256 52T278 28T327 20V0Q302 2 263 2T184 3Q139 3 100 3T36 0V20Q69 22 85 28T107 52T113 106V602Q113 639 108 656T86 680T36 688V708Q61 707 100 706T184
705Q224 705 263 706T327 708Z" />
<glyph unicode="J" horiz-adv-x="352" d="M-22 -188V-168Q19 -166 48 -146T93 -78T108 53V602Q108 639 103 656T80 680T31 688V708Q54 707 92 706T173 705Q215 705 255 706T322 708V688Q289 687 273 681T251 657T245 602V236Q245 195 245 147T241 54T228 -25Q209
-95 146 -141T-22 -188Z" />
<glyph unicode="K" horiz-adv-x="695" d="M665 708V688Q632 682 598 663T528 601L339 369L384 441L623 81Q639 58 656 44T700 20V0Q669 2 629 2T556 3Q537 3 509 3T437 0V20Q477 22 485 31T478 65L332 295Q316 321 304 334T278 351T246 357V377Q288 379 321 399T387
458L458 547Q495 591 503 622T494 670T437 688V708Q471 707 503 706T573 705Q631 705 665 708ZM327 708V688Q295 687 279 681T256 657T250 602V106Q250 70 256 52T278 28T327 20V0Q302 2 263 2T184 3Q139 3 100 3T36 0V20Q69 22 85 28T107 52T113 106V602Q113 639
108 656T86 680T36 688V708Q61 707 100 706T184 705Q224 705 263 706T327 708Z" />
<glyph unicode="L" horiz-adv-x="603" d="M331 708V688Q297 687 280 681T256 657T250 602V98Q250 66 255 50T276 28T319 23H376Q428 23 464 48T522 120T552 234H575Q572 201 572 148Q572 126 573 85T579 0Q528 2 464 2T350 3Q318 3 264 3T150 3T36 0V20Q69 22
85 28T107 52T113 106V602Q113 639 108 656T86 680T36 688V708Q61 707 100 706T184 705Q225 705 265 706T331 708Z" />
<glyph unicode="M" horiz-adv-x="909" d="M872 708V688Q840 687 823 681T801 657T795 602V106Q795 70 801 52T823 28T872 20V0Q846 2 806 2T725 3Q680 3 641 3T577 0V20Q611 22 628 28T652 52T658 106V650L665 649L417 -3H401L137 644V148Q137 100 143 74T169
36T232 20V0Q213 2 183 2T126 3Q102 3 78 3T37 0V20Q70 24 86 35T108 71T114 140V602Q114 639 109 656T87 680T37 688V708Q53 707 77 706T126 705Q163 705 198 706T260 708L475 171L453 153L662 705Q677 705 693 705T725 705Q766 705 806 706T872 708Z" />
<glyph unicode="N" horiz-adv-x="716" d="M685 708V688Q653 685 636 674T614 638T608 568V-3Q599 -2 589 -2T566 -3L137 580V148Q137 100 143 74T169 36T232 20V0Q213 2 183 2T126 3Q102 3 78 3T37 0V20Q70 24 86 35T108 71T114 140V602Q114 639 109 656T87 680T37
688V708Q53 707 77 706T126 705Q149 705 171 706T210 708L585 209V560Q585 609 579 635T553 673T490 688V708Q509 707 539 706T596 705Q621 705 645 706T685 708Z" />
<glyph unicode="O" horiz-adv-x="775" d="M388 722Q490 722 567 679T686 556T729 360Q729 248 686 164T565 33T387 -14Q285 -14 208 29T89 153T46 348Q46 460 90 544T211 675T388 722ZM384 704Q325 704 282 659T214 535T190 352Q190 246 217 168T290 47T391 4Q450
4 493 49T561 173T585 356Q585 463 558 541T486 661T384 704Z" />
<glyph unicode="P" horiz-adv-x="622" d="M36 708Q61 707 100 706T178 705Q227 705 271 706T333 707Q467 707 532 652T598 510Q598 474 585 435T540 362T453 307T311 286H211V306H301Q364 306 397 333T442 404T454 499Q454 594 423 641T316 688Q275 688 263 671T250
602V110Q250 72 258 53T289 28T355 21V0Q326 2 280 2T185 3Q143 3 104 3T36 0V20Q69 22 85 28T107 52T113 106V602Q113 639 108 656T86 680T36 688V708Z" />
<glyph unicode="Q" horiz-adv-x="775" d="M759 1L775 -5Q766 -55 750 -91T708 -147Q688 -164 655 -176T577 -188Q523 -188 472 -171T367 -129T252 -82Q245 -80 239 -78T227 -75Q208 -84 186 -89T144 -94Q124 -94 111 -88T98 -70Q98 -45 152 -45Q187 -45 227 -57Q264
-47 290 -35T345 -11T413 3L414 -13Q384 -16 361 -24T316 -43T262 -62Q327 -69 387 -76T500 -86T595 -87Q660 -82 698 -62T759 1ZM388 722Q490 722 567 679T686 556T729 360Q729 248 686 164T565 33T387 -14Q285 -14 208 29T89 153T46 348Q46 460 90 544T211 675T388
722ZM384 704Q325 704 282 659T214 535T190 352Q190 246 217 168T290 47T391 4Q450 4 493 49T561 173T585 356Q585 463 558 541T486 661T384 704Z" />
<glyph unicode="R" horiz-adv-x="677" d="M36 708Q61 707 100 706T178 705Q227 705 271 706T333 707Q467 707 532 660T598 533Q598 500 585 466T540 402T453 355T311 336H215V356H301Q364 356 397 378T442 438T454 522Q454 601 423 644T316 688Q275 688 263 671T250
602V106Q250 70 256 52T278 28T327 20V0Q302 2 263 2T184 3Q139 3 100 3T36 0V20Q69 22 85 28T107 52T113 106V602Q113 639 108 656T86 680T36 688V708ZM215 353Q262 351 293 349T347 344T388 339Q471 331 510 301T563 208L586 105Q595 64 605 47T636 30Q650 30
660 37T680 58L694 46Q669 15 641 1T570 -14Q522 -14 489 8T444 94L425 194Q417 236 407 268T378 318T325 336H217L215 353Z" />
<glyph unicode="S" horiz-adv-x="569" d="M274 720Q330 720 360 708T412 682Q424 675 431 672T446 668Q462 668 468 712H491Q490 693 489 668T487 602T486 492H463Q460 543 441 590T386 667T295 698Q246 698 214 669T181 591Q181 549 202 521T261 466T353 405Q402
373 441 342T502 272T525 179Q525 114 493 71T407 7T289 -14Q230 -14 196 -2T136 23Q114 37 102 37Q86 37 80 -7H57Q59 16 59 47T60 127T61 253H84Q88 189 106 134T163 44T266 10Q318 10 355 39T392 129Q392 190 350 231T240 314Q193 344 152 375T87 445T62 541Q62
603 92 642T170 701T274 720Z" />
<glyph unicode="T" horiz-adv-x="652" d="M626 708Q622 662 621 619T619 552Q619 529 620 509T622 474H599Q585 554 565 599T513 665T427 685H395V115Q395 74 402 54T433 28T500 20V0Q470 2 422 2T324 3Q272 3 227 3T153 0V20Q196 21 219 27T250 54T258 115V685H225Q173
685 140 665T87 600T54 474H31Q33 489 33 509T34 552Q34 575 33 618T27 708Q71 707 124 706T230 705T327 705Q370 705 423 705T529 706T626 708Z" />
<glyph unicode="U" horiz-adv-x="686" d="M665 708V688Q633 685 617 674T594 638T588 568V291Q588 224 580 171T547 79Q522 37 473 12T352 -14Q304 -14 258 -3T176 38Q145 64 128 97T104 176T98 288V602Q98 639 93 656T71 680T21 688V708Q46 707 85 706T169 705Q210
705 250 706T316 708V688Q282 687 265 681T241 657T235 602V240Q235 173 247 124T290 48T380 21Q453 21 493 54T549 146T565 280V560Q565 609 558 635T531 673T470 688V708Q489 707 519 706T576 705Q601 705 625 706T665 708Z" />
<glyph unicode="V" horiz-adv-x="655" d="M664 708V688Q644 681 620 657T577 580L358 -3Q352 -3 346 -3T332 -2Q325 -2 319 -2T306 -3L55 624Q40 661 23 674T-10 688V708Q16 707 53 706T127 705Q171 705 209 706T271 708V688Q222 686 207 671T212 604L396 131L377
108L527 508Q552 575 552 614T530 670T467 688V708Q500 707 529 706T588 705Q612 705 630 706T664 708Z" />
<glyph unicode="W" horiz-adv-x="947" d="M951 708V688Q931 681 907 657T867 580L686 -3Q680 -3 674 -3T660 -2Q654 -2 648 -2T635 -3L423 631Q412 665 398 676T368 688V708Q392 707 426 706T495 705Q537 705 574 706T634 708V688Q603 687 586 682T567 659T576
604L720 161L700 129L820 508Q842 576 841 615T817 670T754 688V708Q787 707 816 706T876 705Q899 705 917 706T951 708ZM243 708V688Q220 686 211 675T203 647T213 604L366 150L340 118L472 516L487 490L326 -3Q320 -3 314 -3T300 -2Q294 -2 288 -2T275 -3L55
624Q42 661 24 674T-10 688V708Q16 707 53 706T125 705Q162 705 193 706T243 708Z" />
<glyph unicode="X" horiz-adv-x="672" d="M281 708V687Q234 687 222 678T224 647L613 71Q632 42 644 33T678 21V0Q660 1 627 2T558 4Q514 4 470 3T404 0V21Q450 21 464 27T464 55L73 637Q53 666 42 676T8 687V708Q26 707 61 706T132 704Q175 704 215 705T281 708ZM305
359Q305 359 309 346T314 333L205 180Q167 127 163 92T182 40T249 20V0Q230 1 201 1T144 2T99 3Q40 3 9 0V20Q43 29 76 57T143 132L305 359ZM641 708V688Q609 680 578 653T519 588L357 364Q357 364 354 376T350 389L457 538Q513 614 502 649T429 688V708Q458 707
492 706T551 705Q610 705 641 708Z" />
<glyph unicode="Y" horiz-adv-x="612" d="M607 708V688Q587 682 565 658T517 582L324 199H287L53 631Q34 666 20 676T-5 687V708Q19 707 45 706T103 704Q143 704 189 705T275 708V687Q250 687 230 683T203 666T208 628L370 318L346 290L460 516Q493 582 494 619T474
671T410 688V708Q443 707 472 706T531 705Q555 705 573 706T607 708ZM385 340V106Q385 70 391 52T413 28T462 20V0Q437 2 397 2T317 3Q274 3 235 3T171 0V20Q204 22 220 28T242 52T248 106V311L324 249L385 340Z" />
<glyph unicode="Z" horiz-adv-x="599" d="M554 708V688L194 23H328Q367 23 399 34T458 68T501 132T523 230H546Q543 197 543 144Q543 123 544 83T550 0Q495 2 426 2T301 3Q239 3 170 3T40 0V20L402 685H265Q212 685 173 667T110 605T77 486H54Q56 501 56 521T57
564Q57 585 56 625T50 708Q103 706 167 706T283 705Q348 705 420 705T554 708Z" />
<glyph unicode="[" horiz-adv-x="314" d="M277 772V753H212V-162H277V-181H86V772H277Z" />
<glyph unicode="\" horiz-adv-x="370" d="M32 722L304 -14H337L65 722H32Z" />
<glyph unicode="]" horiz-adv-x="314" d="M37 772V753H102V-162H37V-181H228V772H37Z" />
<glyph unicode="^" horiz-adv-x="531" d="M275 528Q302 471 353 417T470 328L462 314Q399 332 341 358T246 410Q216 384 168 358T70 314L62 328Q125 362 177 416T257 528H275Z" />
<glyph unicode="_" horiz-adv-x="602" d="M540 -70V-150H62V-70H540Z" />
<glyph unicode="`" horiz-adv-x="291" d="M66 816Q83 830 104 827T142 804Q158 784 169 758T195 696T241 608L230 599Q188 640 157 664T103 705T65 742Q49 763 50 783T66 816Z" />
<glyph unicode="a" horiz-adv-x="511" d="M158 -7Q92 -7 62 27T32 113Q32 155 52 182T103 227T170 256T236 280T287 306T307 344V417Q307 449 298 469T270 500T223 511Q202 511 179 505T141 482Q167 475 181 456T196 410Q196 379 176 362T124 344Q91 344 74 365T57
414Q57 442 71 460T110 494Q135 511 174 521T259 531Q303 531 337 522T395 488Q419 465 426 431T433 348V74Q433 49 438 39T458 28Q470 28 479 34T497 47L508 30Q486 13 462 3T404 -7Q347 -7 328 18T308 77Q281 32 243 13T158 -7ZM225 49Q247 49 268 61T307 101V303Q294
283 269 270T219 242T175 201T156 132Q156 89 175 69T225 49Z" />
<glyph unicode="b" horiz-adv-x="578" d="M354 531Q432 531 484 466T537 267Q537 168 506 106T423 15T310 -14Q267 -14 228 4T164 63H181Q201 35 229 22T287 8Q346 8 375 69T404 258Q404 342 393 393T359 468T304 492Q265 492 233 459T195 365L188 393Q204 459
248 495T354 531ZM199 783V30Q178 29 156 23T115 7T82 -16L66 -8Q71 6 72 20T73 49V663Q73 708 59 729T5 751V772Q37 769 67 769Q105 769 138 772T199 783Z" />
<glyph unicode="c" horiz-adv-x="493" d="M282 531Q319 531 350 523T405 499Q429 484 443 462T457 412Q457 379 437 359T387 339Q356 339 337 357T317 405Q317 434 334 453T375 478Q366 491 347 499T305 508Q275 508 251 493T210 447T183 372T173 269Q173 188
192 141T243 75T309 55Q340 55 378 73T444 144L463 137Q452 102 428 67T364 9T269 -14Q205 -14 153 15T71 105T40 254Q40 342 71 403T157 498T282 531Z" />
<glyph unicode="d" horiz-adv-x="592" d="M505 783V109Q505 64 520 43T573 21V0Q542 3 511 3Q474 3 441 0T379 -11V663Q379 708 365 729T311 751V772Q343 769 373 769Q411 769 444 772T505 783ZM266 531Q310 531 345 514T397 457L385 447Q371 476 347 490T293
504Q239 504 207 444T174 258Q174 174 187 123T224 48T283 25Q319 25 348 54T382 139L389 111Q376 50 340 18T245 -14Q185 -14 139 15T67 105T41 259Q41 350 71 410T152 501T266 531Z" />
<glyph unicode="e" horiz-adv-x="505" d="M278 531Q366 531 416 478T466 309H129L128 328H350Q352 377 344 418T319 485T273 510Q235 510 207 466T172 320L176 314Q174 301 174 286T173 256Q173 187 193 142T245 76T311 55Q346 55 382 72T447 142L466 134Q455
99 430 65T364 8T270 -14Q202 -14 150 16T69 105T40 251Q40 342 70 404T155 498T278 531Z" />
<glyph unicode="f" horiz-adv-x="345" d="M284 782Q317 782 341 774T384 751Q399 739 408 721T418 681Q418 654 400 635T353 616Q323 616 304 633T284 682Q284 706 297 723T336 748Q333 755 323 760T296 765Q276 765 262 757T238 735Q228 718 224 685T220 585V516H327V496H220V103Q220
54 246 38T318 21V0Q293 1 248 2T152 4Q116 4 80 3T26 0V21Q63 21 78 36T94 93V496H22V516H94Q94 605 107 651T153 732Q174 754 208 768T284 782Z" />
<glyph unicode="g" horiz-adv-x="545" d="M216 -188Q157 -188 109 -177T33 -145T5 -90Q5 -58 33 -33T115 5L122 -11Q103 -22 93 -41T83 -81Q83 -124 122 -147T228 -171Q273 -171 311 -159T372 -122T395 -60Q395 -29 373 -8T283 13H217Q180 13 150 21T101 47T83
97Q83 136 115 167T215 229L226 220Q201 207 182 192T162 154Q162 122 206 122H319Q395 122 447 93T500 -6Q500 -54 469 -95T376 -162T216 -188ZM225 213Q143 213 89 251T34 372Q34 455 88 493T225 531Q306 531 361 493T416 372Q416 290 361 252T225 213ZM225 231Q255
231 272 261T290 372Q290 452 273 482T225 513Q195 513 178 483T160 372Q160 292 177 262T225 231ZM376 446L357 453Q372 490 406 515T478 541Q507 541 523 525T540 480Q540 450 524 436T489 422Q472 422 458 433T442 469T458 531L468 527Q429 512 410 494T376
446Z" />
<glyph unicode="h" horiz-adv-x="602" d="M213 783V429Q238 485 282 508T379 531Q420 531 446 520T488 492Q505 473 512 443T520 362V93Q520 51 535 36T588 21V0Q570 1 533 2T460 4Q424 4 389 3T336 0V21Q368 21 381 36T394 93V396Q394 423 389 444T370 478T326
491Q278 491 246 453T213 353V93Q213 51 226 36T271 21V0Q254 1 221 2T151 4Q115 4 77 3T19 0V21Q56 21 71 36T87 93V663Q87 708 73 729T19 751V772Q51 769 81 769Q119 769 152 772T213 783Z" />
<glyph unicode="i" horiz-adv-x="308" d="M150 772Q186 772 209 752T232 699Q232 666 209 646T150 626Q114 626 91 646T68 699Q68 732 91 752T150 772ZM220 528V93Q220 51 235 36T288 21V0Q270 1 233 2T158 4Q121 4 83 3T26 0V21Q63 21 78 36T94 93V407Q94 453
80 474T26 496V517Q58 514 88 514Q125 514 158 517T220 528Z" />
<glyph unicode="j" horiz-adv-x="287" d="M-24 -188V-171Q29 -169 58 -128T88 -5V408Q88 453 74 474T20 496V517Q52 514 82 514Q120 514 153 517T214 528V101Q214 21 198 -36T143 -131Q118 -156 77 -172T-24 -188ZM142 772Q178 772 201 752T224 699Q224 666 201
646T142 626Q106 626 83 646T60 699Q60 732 83 752T142 772Z" />
<glyph unicode="k" horiz-adv-x="574" d="M213 783V93Q213 51 227 36T275 21V0Q258 1 223 2T152 4Q115 4 77 3T19 0V21Q56 21 71 36T87 93V663Q87 708 73 729T19 751V772Q51 769 81 769Q119 769 152 772T213 783ZM537 517V497Q507 491 479 475T424 429L325 326L336
348L512 73Q526 53 538 40T570 21V0Q557 1 529 2T473 4Q439 4 404 3T350 0V21Q370 21 377 30T375 55L271 230Q257 252 244 258T209 265V285Q234 287 250 294T282 316L357 391Q390 424 390 447T370 482T314 497V517Q341 516 374 515T430 513Q448 513 468 513T507
515T537 517Z" />
<glyph unicode="l" horiz-adv-x="303" d="M214 783V93Q214 51 229 36T282 21V0Q264 1 228 2T153 4Q116 4 78 3T20 0V21Q57 21 72 36T88 93V663Q88 708 74 729T20 751V772Q52 769 82 769Q120 769 153 772T214 783Z" />
<glyph unicode="m" horiz-adv-x="899" d="M378 531Q417 531 443 520T485 492Q503 473 510 442T517 362V93Q517 51 531 36T581 21V0Q563 1 527 2T457 4Q421 4 388 3T337 0V21Q366 21 378 36T391 93V396Q391 423 387 444T370 478T330 491Q299 491 274 473T235 424T220
353V93Q220 51 232 36T274 21V0Q257 1 225 2T158 4Q121 4 83 3T26 0V21Q63 21 78 36T94 93V408Q94 453 80 474T26 496V517Q58 514 88 514Q125 514 158 517T220 528V428Q245 483 287 507T378 531ZM679 531Q718 531 744 520T786 492Q804 473 811 442T818 362V93Q818
51 833 36T886 21V0Q868 1 831 2T758 4Q722 4 689 3T638 0V21Q667 21 679 36T692 93V396Q692 423 688 444T669 478T627 491Q581 491 549 450T516 351L511 423Q538 485 583 508T679 531Z" />
<glyph unicode="n" horiz-adv-x="608" d="M385 531Q427 531 452 520T494 492Q512 473 519 443T527 362V93Q527 51 542 36T595 21V0Q577 1 540 2T467 4Q430 4 395 3T343 0V21Q375 21 388 36T401 93V396Q401 423 396 444T376 478T333 491Q284 491 252 452T220 353V93Q220
51 233 36T278 21V0Q261 1 227 2T158 4Q121 4 83 3T26 0V21Q63 21 78 36T94 93V408Q94 453 80 474T26 496V517Q58 514 88 514Q125 514 158 517T220 528V428Q245 485 289 508T385 531Z" />
<glyph unicode="o" horiz-adv-x="559" d="M280 531Q349 531 402 504T487 416T519 258Q519 160 488 100T403 13T280 -14Q211 -14 157 13T72 100T41 258Q41 356 72 416T157 503T280 531ZM280 511Q233 511 204 452T174 258Q174 124 203 65T280 6Q326 6 356 65T386
258Q386 392 356 451T280 511Z" />
<glyph unicode="p" horiz-adv-x="593" d="M214 527V-84Q214 -129 238 -144T306 -160V-181Q282 -180 239 -179T146 -177Q112 -177 78 -178T26 -181V-160Q60 -160 74 -146T88 -94V407Q88 452 74 473T20 495V516Q52 513 82 513Q120 513 153 516T214 527ZM371 531Q448
531 500 468T552 281Q552 193 526 126T448 23T322 -14Q280 -14 247 2T199 45L209 59Q221 38 242 25T292 12Q340 12 368 43T407 132T419 264Q419 347 408 397T375 469T323 492Q282 492 250 460T210 365L203 393Q219 459 264 495T371 531Z" />
<glyph unicode="q" horiz-adv-x="578" d="M258 531Q309 531 344 514T404 453H388Q371 482 344 495T285 509Q232 509 203 447T174 258Q174 175 187 123T225 48T283 25Q320 25 349 57T383 151L390 123Q378 57 340 22T246 -14Q189 -14 142 15T68 105T41 259Q41 350
69 410T146 501T258 531ZM496 533L512 524Q508 511 507 497T505 468V-94Q505 -132 519 -146T567 -160V-181Q549 -180 516 -179T447 -177Q399 -177 355 -178T287 -181V-160Q330 -160 354 -145T379 -84V476Q400 479 421 487T462 507T496 533Z" />
<glyph unicode="r" horiz-adv-x="459" d="M358 531Q389 531 409 518T440 485T450 443Q450 410 431 388T379 366Q349 366 330 382T311 426Q311 451 323 468T352 495Q341 501 327 499Q295 496 271 472T234 414T220 350V103Q220 54 245 38T318 21V0Q295 1 252 2T161
4Q122 4 84 3T26 0V21Q63 21 78 36T94 93V408Q94 453 80 474T26 496V517Q58 514 88 514Q125 514 158 517T220 528V424Q232 452 251 476T298 515T358 531Z" />
<glyph unicode="s" horiz-adv-x="457" d="M217 531Q259 531 289 519T333 498Q367 473 374 530H396Q394 501 393 462T392 356H370Q365 393 351 428T310 486T239 510Q208 510 188 492T167 441Q167 411 185 389T231 347T291 304Q344 267 380 230T417 132Q417 86 392
54T325 4T233 -14Q206 -14 184 -9T145 4Q132 11 122 17T100 27Q90 32 83 23T71 -7H49Q51 25 52 71T53 193H75Q82 138 96 97T139 32T211 8Q238 8 263 26T288 87Q288 131 258 160T183 222Q149 247 120 271T72 325T53 396Q53 441 76 470T136 515T217 531Z" />
<glyph unicode="t" horiz-adv-x="352" d="M215 681V516H343V496H215V98Q215 62 228 47T265 32Q288 32 307 49T341 108L359 100Q344 51 313 19T224 -14Q190 -14 167 -6T126 19Q104 42 97 74T89 159V496H1V516H89V655Q125 656 156 662T215 681Z" />
<glyph unicode="u" horiz-adv-x="597" d="M509 528V108Q509 63 524 42T577 20V-1Q546 2 515 2Q478 2 445 -1T383 -12V88Q358 33 315 10T221 -14Q182 -14 156 -4T113 25Q96 44 89 75T82 155V408Q82 453 68 474T14 496V517Q46 514 76 514Q113 514 146 517T208 528V120Q208
93 212 72T231 39T273 26Q320 26 351 65T383 163V408Q383 453 369 474T315 496V517Q347 514 377 514Q414 514 447 517T509 528Z" />
<glyph unicode="v" horiz-adv-x="501" d="M500 517V496Q481 492 465 475T433 415L280 -3Q268 -2 256 -2T231 -3L51 440Q36 478 20 487T-7 496V517Q21 515 51 514T117 512Q148 512 182 513T247 517V496Q225 496 208 493T184 478T189 434L309 123L300 112L391 359Q416
429 399 461T331 496V517Q355 515 379 514T424 513Q445 513 465 514T500 517Z" />
<glyph unicode="w" horiz-adv-x="781" d="M250 517V496Q226 496 209 493T187 476T191 430L289 132L278 124L405 519L426 509L263 -3Q251 -2 239 -2T214 -3L54 440Q38 480 23 488T-4 496V517Q24 514 54 513T120 511Q151 511 185 513T250 517ZM781 517V496Q762 492
745 476T713 415L576 -3Q564 -2 552 -2T527 -3L380 390L406 519Q420 518 434 518T462 519L605 112L595 117L673 359Q695 430 677 461T608 496V517Q624 516 641 515T674 514T704 513Q725 513 746 514T781 517Z" />
<glyph unicode="x" horiz-adv-x="530" d="M234 517V496Q215 496 204 487T203 462L468 71Q482 51 495 38T526 21V0Q512 1 485 2T431 4Q396 4 360 3T305 0V21Q325 21 336 30T336 55L71 446Q54 472 42 482T13 496V517Q28 516 58 515T116 513Q150 513 184 514T234
517ZM228 248Q228 248 231 236T235 223L181 152Q152 115 150 86T167 40T222 20V0Q204 1 179 1T129 2T89 3Q46 3 16 0V20Q38 26 59 43T107 95L228 248ZM500 517V497Q480 491 457 473T410 422L297 276Q297 276 294 288T291 301L351 382Q388 432 383 462T324 497V517Q352
516 377 515T428 514Q471 514 500 517Z" />
<glyph unicode="y" horiz-adv-x="514" d="M506 517V496Q487 492 471 475T439 415L291 9L260 -38L54 440Q35 478 18 487T-10 496V517Q19 514 50 513T114 511Q151 511 185 513T250 517V496Q227 496 209 493T186 477T193 430L318 125L310 121L398 359Q423 429 405
461T338 496V517Q362 515 385 514T430 513Q451 513 471 514T506 517ZM291 9L253 -92Q235 -142 210 -163Q195 -176 174 -182T126 -188Q103 -188 82 -180T46 -156T31 -114Q31 -86 50 -69T102 -52Q131 -52 149 -66T168 -110Q168 -129 157 -144T126 -167Q131 -168 135
-168T143 -169Q172 -169 195 -150T232 -90L268 9H291Z" />
<glyph unicode="z" horiz-adv-x="474" d="M442 521L179 15H251Q290 15 322 31T377 86T403 188H425Q425 118 426 72T429 -4Q384 -2 336 -1T239 0Q188 0 135 -1T33 -5L296 501H222Q181 501 149 485T97 431T72 328H50Q50 399 49 444T46 520Q91 518 139 517T236 516Q287
516 340 517T442 521Z" />
<glyph unicode="{" horiz-adv-x="324" d="M304 782V763Q273 762 257 749T234 691T228 551Q228 461 203 410T136 335T49 299Q95 288 136 263T202 188T228 47Q228 -27 231 -70T242 -134T265 -162T304 -169V-188Q229 -188 185 -168T121 -96T102 47Q102 141 96 192T73
266T26 290H21V308H26Q57 310 73 331T95 405T102 551Q102 639 121 689T184 761T304 782Z" />
<glyph unicode="|" horiz-adv-x="243" d="M157 858V-195H85V858H157Z" />
<glyph unicode="}" horiz-adv-x="324" d="M20 782V763Q51 762 67 749T90 691T96 551Q96 461 121 410T188 335T275 299Q229 288 188 263T122 188T96 47Q96 -27 93 -70T82 -134T59 -162T20 -169V-188Q95 -188 139 -168T203 -96T222 47Q222 141 228 192T251 266T298
290H303V308H298Q267 310 251 331T229 405T222 551Q222 639 203 689T140 761T20 782Z" />
<glyph unicode="~" horiz-adv-x="662" d="M214 381Q253 381 286 369T351 339T415 309T484 296Q516 296 542 311T582 362L599 358Q593 294 550 257T450 219Q410 219 377 231T313 261T249 291T180 304Q147 304 122 289T82 238L64 242Q71 307 114 344T214 381Z" />
<glyph unicode="&#xa0;" horiz-adv-x="239" />
<glyph unicode="&#xa1;" horiz-adv-x="267" d="M142 318Q144 255 153 193T174 76T194 -26T203 -106Q203 -148 184 -168T134 -188Q103 -188 83 -168T63 -106Q63 -74 72 -28T92 75T113 193T124 318H142ZM134 531Q169 531 190 511T212 458Q212 425 191 405T134 385Q99
385 78 405T56 458Q56 491 77 511T134 531Z" />
<glyph unicode="&#xa2;" horiz-adv-x="490" d="M249 -181V32H271V-181H249ZM249 520V708H271V520H249ZM275 531Q312 531 343 523T398 499Q422 484 436 462T450 412Q450 379 430 359T380 339Q349 339 330 357T310 405Q310 434 327 453T368 478Q359 491 340 499T298
508Q269 508 245 493T203 447T176 372T166 269Q166 188 185 141T236 75T302 55Q334 55 371 73T438 144L456 137Q445 102 421 67T357 9T262 -14Q198 -14 146 15T64 105T33 254Q33 342 64 403T150 498T275 531Z" />
<glyph unicode="&#xa3;" horiz-adv-x="641" d="M377 736Q413 736 439 729T482 711Q501 698 512 680T524 641Q524 613 506 595T461 577Q434 577 416 593T397 636Q397 684 443 701Q438 709 421 714T383 719Q342 719 318 701T283 650T268 569T264 465V331Q264 277
250 236T213 158T159 78Q197 107 228 117T288 128Q326 128 357 119T419 100T487 91Q521 91 537 108T554 148Q554 180 533 199T477 226L481 242Q529 235 569 203T609 113Q609 59 575 23T472 -14Q430 -14 394 0T323 32T254 60Q244 63 232 65T205 68Q177 68 150 58Q129
23 104 5T54 -14Q46 -14 40 -12T33 0Q33 10 45 23T77 48T121 67Q129 91 132 116T135 175T135 258V439Q135 521 157 588T231 696T377 736ZM393 317V297H58V317H393ZM393 417V397H58V417H393Z" />
<glyph unicode="&#xa4;" horiz-adv-x="589" d="M458 530L524 464L470 409Q485 385 494 358T503 300Q503 270 494 242T469 191L524 138L458 71L403 125Q380 110 353 101T294 92Q233 92 186 124L132 71L66 138L119 191Q104 214 95 242T86 300Q86 359 119 410L66
464L132 530L185 476Q209 492 236 500T294 509Q325 509 352 500T404 475L458 530ZM295 435Q260 435 231 417T185 368T168 300Q168 264 185 234T232 185T295 166Q330 166 358 184T404 233T421 300Q421 336 404 367T359 416T295 435Z" />
<glyph unicode="&#xa5;" horiz-adv-x="667" d="M547 300V280H150V300H547ZM547 200V180H150V200H547ZM638 708V688Q618 682 596 658T548 582L355 199H318L84 631Q65 666 51 676T26 687V708Q50 707 76 706T134 704Q174 704 220 705T306 708V687Q281 687 261 683T234
666T239 628L401 318L378 290L491 516Q525 582 526 619T505 671T441 688V708Q474 707 503 706T563 705Q586 705 604 706T638 708ZM417 340V106Q417 70 422 52T444 28T494 20V0Q468 2 428 2T349 3Q305 3 266 3T203 0V20Q235 22 251 28T274 52T280 106V311L356 249L417
340Z" />
<glyph unicode="&#xa6;" horiz-adv-x="246" d="M159 326V-195H87V326H159ZM159 858V384H87V858H159Z" />
<glyph unicode="&#xa7;" horiz-adv-x="557" d="M296 782Q334 782 361 776T404 761Q436 747 455 724T474 670Q474 644 456 625T407 605Q377 605 358 622T338 669Q338 691 350 709T386 736Q378 751 351 757T302 763Q262 763 239 749T205 714T195 669Q195 630 217
601T276 546T357 489Q410 454 446 424T501 361T520 285Q520 234 488 189T371 105L362 115Q398 137 414 162T430 221Q430 252 413 278T360 331T274 392Q216 432 174 465T108 535T85 618Q85 668 111 704T186 761T296 782ZM185 490L195 479Q160 459 144 433T127 373Q127
343 145 317T198 263T283 202Q342 163 384 130T449 60T472 -24Q472 -73 446 -110T373 -167T262 -188Q224 -188 197 -182T154 -167Q121 -153 103 -130T84 -76Q84 -50 102 -31T151 -11Q181 -11 200 -28T220 -75Q220 -97 208 -115T172 -142Q177 -151 191 -157T223
-166T257 -169Q296 -169 319 -155T352 -119T362 -75Q362 -35 341 -7T282 48T200 105Q148 141 112 171T56 233T37 309Q37 361 69 406T185 490Z" />
<glyph unicode="&#xa8;" horiz-adv-x="462" d="M342 755Q370 755 391 734T412 685Q412 656 391 636T342 615Q313 615 293 635T273 685Q273 713 293 734T342 755ZM120 755Q148 755 168 734T189 685Q189 656 168 636T120 615Q91 615 71 635T50 685Q50 713 70 734T120 755Z" />
<glyph unicode="&#xa9;" horiz-adv-x="885" d="M443 782Q526 782 598 751T724 666T810 539T841 384Q841 302 810 230T725 103T598 17T443 -14Q361 -14 289 17T162 102T76 229T45 384Q45 467 76 539T161 665T288 751T443 782ZM463 657Q501 657 533 648T588 624Q610
610 623 588T637 538Q637 505 617 485T567 465Q536 465 517 484T497 534Q497 562 514 580T555 604Q546 618 525 627T478 636Q462 636 446 630T415 611Q397 597 383 571T361 502T353 393Q353 309 372 260T423 191T489 170Q511 170 534 178T582 208T625 270L643 264Q632
228 608 193T545 135T450 112Q386 112 334 141T251 231T220 380Q220 468 251 529T338 624T463 657ZM443 750Q369 750 304 722T190 643T113 526T85 384Q85 308 113 242T190 126T304 47T443 18Q517 18 582 46T696 125T773 242T801 384Q801 460 773 526T696 642T582
721T443 750Z" />
<glyph unicode="&#xaa;" horiz-adv-x="476" d="M235 722Q311 722 344 692T377 595V428Q377 412 382 406T398 399Q418 399 431 412L442 397Q424 381 398 371T336 360Q297 360 282 372T265 407Q240 382 209 371T146 360Q108 360 79 379T49 438Q49 481 85 503T185
547Q214 557 239 570T265 603V621Q265 666 249 684T201 703Q187 703 171 699T141 686Q159 681 170 666T181 632Q181 608 163 594T121 579Q94 579 78 593T61 632Q61 656 76 672T113 699Q139 711 168 716T235 722ZM265 573Q262 565 253 557T220 535Q192 519 179 500T165
457Q165 433 177 418T210 403Q240 403 265 426V573Z" />
<glyph unicode="&#xab;" horiz-adv-x="547" d="M288 531L304 526Q286 470 262 420T210 330T153 260Q182 232 209 191T261 98T304 -9L288 -15Q236 69 174 136T28 254V262Q111 312 173 379T288 531ZM480 515L496 510Q479 456 457 410T409 325T356 260Q383 233 408
195T456 109T496 7L480 1Q431 80 373 144T235 254V262Q314 309 372 372T480 515Z" />
<glyph unicode="&#xac;" horiz-adv-x="646" d="M577 370V165H541V340H76V370H577Z" />
<glyph unicode="&#xad;" horiz-adv-x="487" />
<glyph unicode="&#xae;" horiz-adv-x="669" d="M335 782Q412 782 475 745T576 644T614 503Q614 426 577 363T476 262T335 224Q258 224 195 261T94 362T56 503Q56 580 93 643T194 744T335 782ZM268 522Q302 522 316 521T338 519T357 515Q408 511 426 497T450 456L464
393Q467 382 469 375T480 367Q487 367 492 373L500 365Q493 355 481 350T450 345Q421 345 406 355T386 388L371 461Q367 481 360 490T332 503T270 507L268 522ZM335 750Q269 750 216 717T130 627T98 503Q98 436 130 380T215 290T335 256Q401 256 455 289T540 379T572
503Q572 571 541 627T455 716T335 750ZM346 676Q408 676 437 656T466 597Q466 579 455 560T412 527T323 510L263 507Q263 507 263 515T263 523H316Q358 523 373 541T389 590Q389 625 375 643T330 661Q311 661 306 655T300 631V404Q300 381 304 375T323 367V352Q311
352 296 352T264 353Q245 353 229 353T202 352V367Q216 369 220 375T225 404V623Q225 647 221 653T202 661V676Q212 675 228 675T260 675Q288 675 312 675T346 676Z" />
<glyph unicode="&#xaf;" horiz-adv-x="428" d="M378 712V687H50V712H378Z" />
<glyph unicode="&#xb0;" horiz-adv-x="319" d="M159 820Q208 820 244 788T281 700Q281 644 245 612T159 579Q111 579 75 611T38 700Q38 756 74 788T159 820ZM159 803Q125 803 94 777T63 699Q63 647 94 622T159 596Q193 596 224 621T256 699Q256 750 225 776T159 803Z" />
<glyph unicode="&#xb1;" horiz-adv-x="585" d="M546 30V0H45V30H546ZM309 606V370H541V340H309V105H273V340H40V370H273V606H309Z" />
<glyph unicode="&#xb2;" horiz-adv-x="346" d="M178 755Q224 755 254 737T284 680Q284 652 268 629T227 587T173 548T120 508H254Q278 508 286 517T301 542L318 539Q311 508 308 483T303 435Q294 437 285 437T265 438H29V458Q51 477 80 498T137 544T183 600T201
665Q201 691 185 704T140 717Q82 717 49 667L34 675Q52 706 86 730T178 755Z" />
<glyph unicode="&#xb3;" horiz-adv-x="328" d="M170 756Q217 756 248 737T280 683Q280 649 250 625T171 589Q222 590 260 567T299 498Q299 462 275 435T210 389T122 360T27 348V365Q80 369 123 387T192 435T218 501Q218 534 201 555T153 578Q142 573 134 569T116
564Q101 564 101 576Q101 587 114 589T145 590Q176 604 186 626T197 664Q197 688 180 704T132 720Q105 720 82 707T42 668L27 676Q44 707 78 731T170 756Z" />
<glyph unicode="&#xb4;" horiz-adv-x="291" d="M225 816Q240 803 241 783T226 742Q211 723 189 706T135 664T61 599L50 608Q80 660 95 696T122 758T149 804Q165 823 186 826T225 816Z" />
<glyph unicode="&#xb6;" horiz-adv-x="703" d="M411 709Q482 709 543 707T662 708V689Q616 687 603 671T589 621V-75Q589 -111 595 -129T617 -153T666 -161V-181Q639 -179 596 -179T507 -178Q460 -178 419 -178T351 -181V-161Q414 -159 433 -139T452 -65V-13Q298
-13 206 36T74 169T33 360Q33 462 78 541T207 664T411 709ZM453 656Q450 656 441 617T424 513T414 370Q333 370 267 366T162 358T122 351Q122 348 161 344T267 337T414 333Q415 253 423 189T441 86T453 48Q453 48 453 80T453 167T453 285T453 415T453 534T453 621T453
656Z" />
<glyph unicode="&#xb7;" horiz-adv-x="274" d="M137 350Q171 350 193 330T215 277Q215 244 193 224T137 204Q102 204 81 224T59 277Q59 310 80 330T137 350Z" />
<glyph unicode="&#xb8;" horiz-adv-x="317" d="M156 4L134 -67Q149 -62 165 -60T201 -57Q233 -57 250 -71T267 -108Q267 -137 248 -154T199 -180T136 -188Q108 -188 87 -185T50 -176L55 -158Q61 -159 72 -160T97 -162Q123 -162 149 -153T176 -120Q176 -93 139
-93Q131 -93 119 -94T97 -100L129 4H156Z" />
<glyph unicode="&#xb9;" horiz-adv-x="277" d="M195 753V507Q195 478 210 468T262 458V437Q246 438 216 438T153 439Q118 439 87 439T38 437V458Q73 458 92 468T112 507V636Q112 680 95 690T31 701V722Q88 723 125 730T195 753Z" />
<glyph unicode="&#xba;" horiz-adv-x="464" d="M232 722Q283 722 326 702T395 641T421 541Q421 482 395 442T326 381T232 360Q181 360 138 380T69 441T43 541Q43 601 69 641T138 701T232 722ZM232 704Q202 704 181 666T159 541Q159 454 180 416T232 378Q262 378
283 416T304 541Q304 628 283 666T232 704Z" />
<glyph unicode="&#xbb;" horiz-adv-x="546" d="M258 531Q311 447 373 380T519 262V253Q436 204 374 137T258 -15L243 -10Q262 47 285 96T337 186T394 255Q365 284 337 325T286 418T243 525L258 531ZM67 515Q116 436 175 372T311 262V253Q234 207 175 144T67 1L51
6Q69 60 91 106T138 191T191 255Q164 283 139 321T91 408T51 509L67 515Z" />
<glyph unicode="&#xbc;" horiz-adv-x="704" d="M659 824L678 811L93 -55L74 -42L659 824ZM211 753V507Q211 478 226 468T278 458V437Q262 438 232 438T169 439Q134 439 103 439T54 437V458Q89 458 108 468T128 507V636Q128 680 111 690T47 701V722Q104 723 141
730T211 753ZM536 309L544 294L324 47L335 70H569Q593 70 601 79T616 104L633 101Q629 86 626 71T622 40T619 15Q610 17 601 17T581 18H295V39L536 309ZM557 309V-99H491V245L536 309H557Z" />
<glyph unicode="&#xbd;" horiz-adv-x="714" d="M643 824L662 811L77 -55L58 -42L643 824ZM214 753V507Q214 478 229 468T281 458V437Q265 438 235 438T172 439Q137 439 106 439T57 437V458Q92 458 111 468T131 507V636Q131 680 114 690T50 701V722Q107 723 144
730T214 753ZM537 318Q583 318 613 300T643 243Q643 215 627 192T586 150T532 111T479 71H613Q637 71 645 80T660 105L677 102Q670 71 667 46T662 -2Q653 0 644 0T624 1H388V21Q410 40 439 61T496 107T542 163T560 228Q560 254 544 267T499 280Q441 280 408 230L393
238Q411 269 445 293T537 318Z" />
<glyph unicode="&#xbe;" horiz-adv-x="750" d="M702 824L721 811L136 -55L117 -42L702 824ZM192 756Q239 756 270 737T302 683Q302 649 272 625T193 589Q244 590 282 567T321 498Q321 462 297 435T232 389T144 360T49 348V365Q102 369 145 387T214 435T240 501Q240
534 223 555T175 578Q164 573 156 569T138 564Q123 564 123 576Q123 587 136 589T167 590Q198 604 208 626T219 664Q219 688 202 704T154 720Q127 720 104 707T64 668L49 676Q66 707 100 731T192 756ZM582 309L590 294L370 47L381 70H615Q639 70 647 79T662 104L679
101Q675 86 672 71T668 40T665 15Q656 17 647 17T627 18H341V39L582 309ZM603 309V-99H537V245L582 309H603Z" />
<glyph unicode="&#xbf;" horiz-adv-x="486" d="M294 322V185Q235 162 205 133T165 69T154 -3Q154 -90 190 -129T283 -168Q309 -168 334 -163T373 -145Q349 -138 336 -122T322 -79Q322 -49 342 -31T393 -13Q422 -13 440 -31T458 -77Q458 -104 443 -123T404 -157Q382
-169 347 -178T259 -188Q157 -188 93 -142T29 -14Q29 65 97 118T274 194V322H294ZM284 532Q318 532 340 512T362 459Q362 426 340 406T284 386Q249 386 228 406T206 459Q206 492 227 512T284 532Z" />
<glyph unicode="&#xc0;" horiz-adv-x="655" d="M353 711L596 84Q611 48 628 35T661 20V0Q635 2 599 2T524 3Q480 3 442 3T380 0V20Q431 22 445 37T439 104L263 579L281 601L121 186Q95 120 96 85T120 35T185 20V0Q153 2 123 2T63 3Q41 3 22 3T-13 0V20Q9 25 30
46T72 119L301 711Q313 710 327 710T353 711ZM440 288V268H142L152 288H440ZM229 931Q252 919 271 899T318 850T393 785L386 772Q332 795 294 806T230 825T180 846Q158 859 152 878T155 915Q165 934 186 938T229 931Z" />
<glyph unicode="&#xc1;" horiz-adv-x="655" d="M353 711L596 84Q611 48 628 35T661 20V0Q635 2 599 2T524 3Q480 3 442 3T380 0V20Q431 22 445 37T439 104L263 579L281 601L121 186Q95 120 96 85T120 35T185 20V0Q153 2 123 2T63 3Q41 3 22 3T-13 0V20Q9 25 30
46T72 119L301 711Q313 710 327 710T353 711ZM440 288V268H142L152 288H440ZM421 931Q442 943 463 939T495 915Q504 897 498 878T470 846Q448 833 421 825T356 806T264 772L257 785Q304 822 332 850T379 898T421 931Z" />
<glyph unicode="&#xc2;" horiz-adv-x="655" d="M353 711L596 84Q611 48 628 35T661 20V0Q635 2 599 2T524 3Q480 3 442 3T380 0V20Q431 22 445 37T439 104L263 579L281 601L121 186Q95 120 96 85T120 35T185 20V0Q153 2 123 2T63 3Q41 3 22 3T-13 0V20Q9 25 30
46T72 119L301 711Q313 710 327 710T353 711ZM440 288V268H142L152 288H440ZM335 932Q363 890 416 851T534 784L529 770Q465 782 404 800T306 836Q276 818 226 800T123 770L118 784Q183 810 235 850T317 932H335Z" />
<glyph unicode="&#xc3;" horiz-adv-x="655" d="M353 711L596 84Q611 48 628 35T661 20V0Q635 2 599 2T524 3Q480 3 442 3T380 0V20Q431 22 445 37T439 104L263 579L281 601L121 186Q95 120 96 85T120 35T185 20V0Q153 2 123 2T63 3Q41 3 22 3T-13 0V20Q9 25 30
46T72 119L301 711Q313 710 327 710T353 711ZM440 288V268H142L152 288H440ZM240 916Q273 916 298 906T347 881T393 855T445 844Q468 844 487 856T521 899L536 894Q525 832 490 801T410 769Q377 769 351 780T303 805T257 831T205 842Q181 842 162 830T129 787L114
792Q125 854 160 885T240 916Z" />
<glyph unicode="&#xc4;" horiz-adv-x="655" d="M353 711L596 84Q611 48 628 35T661 20V0Q635 2 599 2T524 3Q480 3 442 3T380 0V20Q431 22 445 37T439 104L263 579L281 601L121 186Q95 120 96 85T120 35T185 20V0Q153 2 123 2T63 3Q41 3 22 3T-13 0V20Q9 25 30
46T72 119L301 711Q313 710 327 710T353 711ZM440 288V268H142L152 288H440ZM441 907Q469 907 490 886T511 838Q511 809 490 789T441 768Q412 768 392 788T372 838Q372 865 392 886T441 907ZM211 907Q239 907 259 886T280 838Q280 809 259 789T211 768Q182 768
162 788T141 838Q141 865 161 886T211 907Z" />
<glyph unicode="&#xc5;" horiz-adv-x="655" d="M353 711L596 84Q611 48 628 35T661 20V0Q635 2 599 2T524 3Q480 3 442 3T380 0V20Q431 22 445 37T439 104L263 579L281 601L121 186Q95 120 96 85T120 35T185 20V0Q153 2 123 2T63 3Q41 3 22 3T-13 0V20Q9 25 30
46T72 119L301 711Q313 710 327 710T353 711ZM440 288V268H142L152 288H440ZM326 933Q368 933 399 908T431 838Q431 793 400 768T326 742Q285 742 254 767T222 838Q222 882 253 907T326 933ZM326 912Q299 912 275 893T250 837Q250 800 274 782T326 763Q354 763
378 781T403 837Q403 874 379 893T326 912Z" />
<glyph unicode="&#xc6;" horiz-adv-x="877" d="M489 772L94 104Q67 58 80 40T145 20V0Q130 2 106 2T54 3Q37 3 19 3T-13 0V20Q3 21 19 35T56 84L465 772H489ZM811 708Q807 669 806 633T804 578Q804 559 805 542T807 512H784Q777 577 763 615T725 669T664 685H621Q589
685 573 680T550 657T544 602V106Q544 70 550 52T572 29T621 23H678Q718 23 743 41T783 101T804 216H827Q824 185 824 136Q824 116 825 78T831 0Q783 2 723 2T614 3Q586 3 540 3T441 3T342 0V20Q370 22 384 28T402 52T407 106V602Q407 639 402 656T380 680T330
688V708Q379 707 433 706T536 705T614 705Q657 705 712 705T811 708ZM440 366V346H225L235 366H440ZM680 366Q680 366 680 356T680 346H514Q514 346 514 356T514 366H680ZM709 482Q705 431 705 405T706 356Q706 334 707 308T712 230H689Q685 258 679 285T656 329T604
346V366Q639 366 655 386T676 434T686 482H709Z" />
<glyph unicode="&#xc7;" horiz-adv-x="700" d="M388 722Q454 722 496 703T572 657Q592 642 602 653T617 708H640Q638 670 637 615T636 470H613Q607 515 600 545T581 598T546 640Q519 670 482 684T403 699Q351 699 313 672T249 597T211 486T198 352Q198 279 211
217T251 108T317 35T409 9Q446 9 485 23T549 66Q582 96 594 137T613 248H636Q636 154 637 97T640 0H617Q613 43 604 54T572 51Q535 25 494 6T387 -14Q285 -14 208 29T89 153T46 348Q46 460 90 544T211 675T388 722ZM403 5L380 -67Q396 -62 413 -60T451 -57Q485
-57 503 -71T521 -108Q521 -137 500 -154T447 -180T378 -188Q349 -188 327 -185T288 -176L293 -158Q299 -159 312 -160T339 -162Q370 -162 400 -153T430 -120Q430 -106 418 -100T386 -93Q378 -93 365 -94T343 -100L376 5H403Z" />
<glyph unicode="&#xc8;" horiz-adv-x="625" d="M559 708Q555 667 554 629T552 570Q552 551 553 534T555 504H532Q524 573 506 612T458 668T378 685H323Q293 685 277 680T256 659T250 610V98Q250 66 255 50T277 28T323 23H380Q431 23 465 42T521 104T552 224H575Q572
193 572 144Q572 123 573 83T579 0Q528 2 464 2T350 3Q318 3 264 3T150 3T36 0V20Q69 22 85 28T107 52T113 106V602Q113 639 108 656T86 680T36 688V708Q89 707 149 706T264 705T350 705Q396 705 454 705T559 708ZM398 366Q398 366 398 356T398 346H220Q220 346
220 356T220 366H398ZM427 498Q423 441 423 411T424 356Q424 331 425 301T430 214H407Q402 248 392 278T359 327T294 346V366Q336 366 357 388T389 441T404 498H427ZM215 931Q238 919 257 899T304 850T379 785L372 772Q318 795 280 806T216 825T166 846Q144 859
138 878T141 915Q151 934 172 938T215 931Z" />
<glyph unicode="&#xc9;" horiz-adv-x="625" d="M559 708Q555 667 554 629T552 570Q552 551 553 534T555 504H532Q524 573 506 612T458 668T378 685H323Q293 685 277 680T256 659T250 610V98Q250 66 255 50T277 28T323 23H380Q431 23 465 42T521 104T552 224H575Q572
193 572 144Q572 123 573 83T579 0Q528 2 464 2T350 3Q318 3 264 3T150 3T36 0V20Q69 22 85 28T107 52T113 106V602Q113 639 108 656T86 680T36 688V708Q89 707 149 706T264 705T350 705Q396 705 454 705T559 708ZM398 366Q398 366 398 356T398 346H220Q220 346
220 356T220 366H398ZM427 498Q423 441 423 411T424 356Q424 331 425 301T430 214H407Q402 248 392 278T359 327T294 346V366Q336 366 357 388T389 441T404 498H427ZM407 931Q428 943 449 939T481 915Q490 897 484 878T456 846Q434 833 407 825T342 806T250 772L243
785Q290 822 318 850T365 898T407 931Z" />
<glyph unicode="&#xca;" horiz-adv-x="625" d="M559 708Q555 667 554 629T552 570Q552 551 553 534T555 504H532Q524 573 506 612T458 668T378 685H323Q293 685 277 680T256 659T250 610V98Q250 66 255 50T277 28T323 23H380Q431 23 465 42T521 104T552 224H575Q572
193 572 144Q572 123 573 83T579 0Q528 2 464 2T350 3Q318 3 264 3T150 3T36 0V20Q69 22 85 28T107 52T113 106V602Q113 639 108 656T86 680T36 688V708Q89 707 149 706T264 705T350 705Q396 705 454 705T559 708ZM398 366Q398 366 398 356T398 346H220Q220 346
220 356T220 366H398ZM427 498Q423 441 423 411T424 356Q424 331 425 301T430 214H407Q402 248 392 278T359 327T294 346V366Q336 366 357 388T389 441T404 498H427ZM321 932Q349 890 402 851T520 784L515 770Q451 782 390 800T292 836Q262 818 212 800T109 770L104
784Q169 810 221 850T303 932H321Z" />
<glyph unicode="&#xcb;" horiz-adv-x="625" d="M559 708Q555 667 554 629T552 570Q552 551 553 534T555 504H532Q524 573 506 612T458 668T378 685H323Q293 685 277 680T256 659T250 610V98Q250 66 255 50T277 28T323 23H380Q431 23 465 42T521 104T552 224H575Q572
193 572 144Q572 123 573 83T579 0Q528 2 464 2T350 3Q318 3 264 3T150 3T36 0V20Q69 22 85 28T107 52T113 106V602Q113 639 108 656T86 680T36 688V708Q89 707 149 706T264 705T350 705Q396 705 454 705T559 708ZM398 366Q398 366 398 356T398 346H220Q220 346
220 356T220 366H398ZM427 498Q423 441 423 411T424 356Q424 331 425 301T430 214H407Q402 248 392 278T359 327T294 346V366Q336 366 357 388T389 441T404 498H427ZM427 907Q455 907 476 886T497 838Q497 809 476 789T427 768Q398 768 378 788T358 838Q358 865
378 886T427 907ZM197 907Q225 907 245 886T266 838Q266 809 245 789T197 768Q168 768 148 788T127 838Q127 865 147 886T197 907Z" />
<glyph unicode="&#xcc;" horiz-adv-x="364" d="M327 708V688Q295 687 279 681T256 657T250 602V106Q250 70 256 52T278 28T327 20V0Q302 2 263 2T184 3Q139 3 100 3T36 0V20Q69 22 85 28T107 52T113 106V602Q113 639 108 656T86 680T36 688V708Q61 707 100 706T184
705Q224 705 263 706T327 708ZM343 931Q366 919 385 899T432 850T507 785L500 772Q446 795 408 806T344 825T294 846Q272 859 266 878T269 915Q279 934 300 938T343 931Z" />
<glyph unicode="&#xcd;" horiz-adv-x="364" d="M327 708V688Q295 687 279 681T256 657T250 602V106Q250 70 256 52T278 28T327 20V0Q302 2 263 2T184 3Q139 3 100 3T36 0V20Q69 22 85 28T107 52T113 106V602Q113 639 108 656T86 680T36 688V708Q61 707 100 706T184
705Q224 705 263 706T327 708ZM279 931Q300 943 321 939T353 915Q362 897 356 878T328 846Q306 833 279 825T214 806T122 772L115 785Q162 822 190 850T237 898T279 931Z" />
<glyph unicode="&#xce;" horiz-adv-x="364" d="M327 708V688Q295 687 279 681T256 657T250 602V106Q250 70 256 52T278 28T327 20V0Q302 2 263 2T184 3Q139 3 100 3T36 0V20Q69 22 85 28T107 52T113 106V602Q113 639 108 656T86 680T36 688V708Q61 707 100 706T184
705Q224 705 263 706T327 708ZM449 932Q477 890 530 851T648 784L643 770Q579 782 518 800T420 836Q390 818 340 800T237 770L232 784Q297 810 349 850T431 932H449Z" />
<glyph unicode="&#xcf;" horiz-adv-x="364" d="M327 708V688Q295 687 279 681T256 657T250 602V106Q250 70 256 52T278 28T327 20V0Q302 2 263 2T184 3Q139 3 100 3T36 0V20Q69 22 85 28T107 52T113 106V602Q113 639 108 656T86 680T36 688V708Q61 707 100 706T184
705Q224 705 263 706T327 708ZM555 907Q583 907 604 886T625 838Q625 809 604 789T555 768Q526 768 506 788T486 838Q486 865 506 886T555 907ZM325 907Q353 907 373 886T394 838Q394 809 373 789T325 768Q296 768 276 788T255 838Q255 865 275 886T325 907Z" />
<glyph unicode="&#xd0;" horiz-adv-x="758" d="M333 708Q525 708 617 619T710 362Q710 253 665 172T533 45T324 0Q302 0 258 1T180 3Q139 3 100 3T36 0V20Q69 22 85 28T107 52T113 106V602Q113 639 108 656T86 680T36 688V708Q61 707 100 706T178 705Q214 706
259 707T333 708ZM324 690Q278 690 264 673T250 604V104Q250 52 264 35T325 18Q418 18 470 57T544 173T566 358Q566 526 512 608T324 690ZM383 366V346H9V366H383Z" />
<glyph unicode="&#xd1;" horiz-adv-x="716" d="M685 708V688Q653 685 636 674T614 638T608 568V-3Q599 -2 589 -2T566 -3L137 580V148Q137 100 143 74T169 36T232 20V0Q213 2 183 2T126 3Q102 3 78 3T37 0V20Q70 24 86 35T108 71T114 140V602Q114 639 109 656T87
680T37 688V708Q53 707 77 706T126 705Q149 705 171 706T210 708L585 209V560Q585 609 579 635T553 673T490 688V708Q509 707 539 706T596 705Q621 705 645 706T685 708ZM291 916Q324 916 349 906T398 881T444 855T496 844Q519 844 538 856T572 899L587 894Q576
832 541 801T461 769Q428 769 402 780T354 805T308 831T256 842Q232 842 213 830T180 787L165 792Q176 854 211 885T291 916Z" />
<glyph unicode="&#xd2;" horiz-adv-x="775" d="M388 722Q490 722 567 679T686 556T729 360Q729 248 686 164T565 33T387 -14Q285 -14 208 29T89 153T46 348Q46 460 90 544T211 675T388 722ZM384 704Q325 704 282 659T214 535T190 352Q190 246 217 168T290 47T391
4Q450 4 493 49T561 173T585 356Q585 463 558 541T486 661T384 704ZM289 931Q312 919 331 899T378 850T453 785L446 772Q392 795 354 806T290 825T240 846Q218 859 212 878T215 915Q225 934 246 938T289 931Z" />
<glyph unicode="&#xd3;" horiz-adv-x="775" d="M388 722Q490 722 567 679T686 556T729 360Q729 248 686 164T565 33T387 -14Q285 -14 208 29T89 153T46 348Q46 460 90 544T211 675T388 722ZM384 704Q325 704 282 659T214 535T190 352Q190 246 217 168T290 47T391
4Q450 4 493 49T561 173T585 356Q585 463 558 541T486 661T384 704ZM481 931Q502 943 523 939T555 915Q564 897 558 878T530 846Q508 833 481 825T416 806T324 772L317 785Q364 822 392 850T439 898T481 931Z" />
<glyph unicode="&#xd4;" horiz-adv-x="775" d="M388 722Q490 722 567 679T686 556T729 360Q729 248 686 164T565 33T387 -14Q285 -14 208 29T89 153T46 348Q46 460 90 544T211 675T388 722ZM384 704Q325 704 282 659T214 535T190 352Q190 246 217 168T290 47T391
4Q450 4 493 49T561 173T585 356Q585 463 558 541T486 661T384 704ZM395 932Q423 890 476 851T594 784L589 770Q525 782 464 800T366 836Q336 818 286 800T183 770L178 784Q243 810 295 850T377 932H395Z" />
<glyph unicode="&#xd5;" horiz-adv-x="775" d="M388 722Q490 722 567 679T686 556T729 360Q729 248 686 164T565 33T387 -14Q285 -14 208 29T89 153T46 348Q46 460 90 544T211 675T388 722ZM384 704Q325 704 282 659T214 535T190 352Q190 246 217 168T290 47T391
4Q450 4 493 49T561 173T585 356Q585 463 558 541T486 661T384 704ZM300 916Q333 916 358 906T407 881T453 855T505 844Q528 844 547 856T581 899L596 894Q585 832 550 801T470 769Q437 769 411 780T363 805T317 831T265 842Q241 842 222 830T189 787L174 792Q185
854 220 885T300 916Z" />
<glyph unicode="&#xd6;" horiz-adv-x="775" d="M388 722Q490 722 567 679T686 556T729 360Q729 248 686 164T565 33T387 -14Q285 -14 208 29T89 153T46 348Q46 460 90 544T211 675T388 722ZM384 704Q325 704 282 659T214 535T190 352Q190 246 217 168T290 47T391
4Q450 4 493 49T561 173T585 356Q585 463 558 541T486 661T384 704ZM501 907Q529 907 550 886T571 838Q571 809 550 789T501 768Q472 768 452 788T432 838Q432 865 452 886T501 907ZM271 907Q299 907 319 886T340 838Q340 809 319 789T271 768Q242 768 222 788T201
838Q201 865 221 886T271 907Z" />
<glyph unicode="&#xd7;" horiz-adv-x="499" d="M75 552L250 377L423 550L445 528L272 356L445 183L423 161L250 334L76 160L54 182L228 355L53 530L75 552Z" />
<glyph unicode="&#xd8;" horiz-adv-x="775" d="M388 722Q490 722 567 679T686 556T729 360Q729 248 686 164T565 33T387 -14Q285 -14 208 29T89 153T46 348Q46 460 90 544T211 675T388 722ZM384 704Q325 704 282 659T214 535T190 352Q190 246 217 168T290 47T391
4Q450 4 493 49T561 173T585 356Q585 463 558 541T486 661T384 704ZM552 635L567 615L222 76L204 94L552 635ZM193 94L211 76L104 -77L83 -63L193 94ZM656 777L675 764L574 615L559 635L656 777Z" />
<glyph unicode="&#xd9;" horiz-adv-x="686" d="M665 708V688Q633 685 617 674T594 638T588 568V291Q588 224 580 171T547 79Q522 37 473 12T352 -14Q304 -14 258 -3T176 38Q145 64 128 97T104 176T98 288V602Q98 639 93 656T71 680T21 688V708Q46 707 85 706T169
705Q210 705 250 706T316 708V688Q282 687 265 681T241 657T235 602V240Q235 173 247 124T290 48T380 21Q453 21 493 54T549 146T565 280V560Q565 609 558 635T531 673T470 688V708Q489 707 519 706T576 705Q601 705 625 706T665 708ZM259 931Q282 919 301 899T348
850T423 785L416 772Q362 795 324 806T260 825T210 846Q188 859 182 878T185 915Q195 934 216 938T259 931Z" />
<glyph unicode="&#xda;" horiz-adv-x="686" d="M665 708V688Q633 685 617 674T594 638T588 568V291Q588 224 580 171T547 79Q522 37 473 12T352 -14Q304 -14 258 -3T176 38Q145 64 128 97T104 176T98 288V602Q98 639 93 656T71 680T21 688V708Q46 707 85 706T169
705Q210 705 250 706T316 708V688Q282 687 265 681T241 657T235 602V240Q235 173 247 124T290 48T380 21Q453 21 493 54T549 146T565 280V560Q565 609 558 635T531 673T470 688V708Q489 707 519 706T576 705Q601 705 625 706T665 708ZM451 931Q472 943 493 939T525
915Q534 897 528 878T500 846Q478 833 451 825T386 806T294 772L287 785Q334 822 362 850T409 898T451 931Z" />
<glyph unicode="&#xdb;" horiz-adv-x="686" d="M665 708V688Q633 685 617 674T594 638T588 568V291Q588 224 580 171T547 79Q522 37 473 12T352 -14Q304 -14 258 -3T176 38Q145 64 128 97T104 176T98 288V602Q98 639 93 656T71 680T21 688V708Q46 707 85 706T169
705Q210 705 250 706T316 708V688Q282 687 265 681T241 657T235 602V240Q235 173 247 124T290 48T380 21Q453 21 493 54T549 146T565 280V560Q565 609 558 635T531 673T470 688V708Q489 707 519 706T576 705Q601 705 625 706T665 708ZM365 932Q393 890 446 851T564
784L559 770Q495 782 434 800T336 836Q306 818 256 800T153 770L148 784Q213 810 265 850T347 932H365Z" />
<glyph unicode="&#xdc;" horiz-adv-x="686" d="M665 708V688Q633 685 617 674T594 638T588 568V291Q588 224 580 171T547 79Q522 37 473 12T352 -14Q304 -14 258 -3T176 38Q145 64 128 97T104 176T98 288V602Q98 639 93 656T71 680T21 688V708Q46 707 85 706T169
705Q210 705 250 706T316 708V688Q282 687 265 681T241 657T235 602V240Q235 173 247 124T290 48T380 21Q453 21 493 54T549 146T565 280V560Q565 609 558 635T531 673T470 688V708Q489 707 519 706T576 705Q601 705 625 706T665 708ZM471 907Q499 907 520 886T541
838Q541 809 520 789T471 768Q442 768 422 788T402 838Q402 865 422 886T471 907ZM241 907Q269 907 289 886T310 838Q310 809 289 789T241 768Q212 768 192 788T171 838Q171 865 191 886T241 907Z" />
<glyph unicode="&#xdd;" horiz-adv-x="612" d="M607 708V688Q587 682 565 658T517 582L324 199H287L53 631Q34 666 20 676T-5 687V708Q19 707 45 706T103 704Q143 704 189 705T275 708V687Q250 687 230 683T203 666T208 628L370 318L346 290L460 516Q493 582 494
619T474 671T410 688V708Q443 707 472 706T531 705Q555 705 573 706T607 708ZM385 340V106Q385 70 391 52T413 28T462 20V0Q437 2 397 2T317 3Q274 3 235 3T171 0V20Q204 22 220 28T242 52T248 106V311L324 249L385 340ZM417 931Q438 943 459 939T491 915Q500 897
494 878T466 846Q444 833 417 825T352 806T260 772L253 785Q300 822 328 850T375 898T417 931Z" />
<glyph unicode="&#xde;" horiz-adv-x="607" d="M318 565Q452 565 517 513T583 372Q583 331 570 291T525 217T438 164T296 144H200Q200 144 200 154T200 164H286Q349 164 382 191T427 265T439 364Q439 453 407 499T293 546Q262 546 224 545T169 544L167 563Q214
563 257 564T318 565ZM327 708V688Q295 687 279 681T256 657T250 602V106Q250 70 256 52T278 28T327 20V0Q302 2 263 2T184 3Q139 3 100 3T36 0V20Q69 22 85 28T107 52T113 106V602Q113 639 108 656T86 680T36 688V708Q61 707 100 706T184 705Q224 705 263 706T327
708Z" />
<glyph unicode="&#xdf;" horiz-adv-x="632" d="M318 782Q415 782 466 742T518 636Q518 598 500 565T452 505T388 460T320 433Q405 419 467 383T565 295T601 178Q601 117 572 74T495 9T393 -14Q359 -14 329 -5T278 26T258 83Q258 115 275 134T323 154Q351 154 368
137T386 92Q386 65 371 47T331 19Q335 12 346 7T373 2Q401 2 423 20T459 73T472 162Q472 215 459 258T424 333T371 388T305 422Q296 418 287 414T269 409Q262 409 256 413T249 426Q249 444 271 444Q279 444 288 442T306 437Q356 473 376 518T396 627Q396 696 373
731T304 767Q278 767 258 752T226 698T214 588V-11Q188 -4 159 -1T96 3Q78 3 61 3T20 0V21Q59 21 73 40T88 103V528Q88 617 115 673T195 755T318 782Z" />
<glyph unicode="&#xe0;" horiz-adv-x="511" d="M158 -7Q92 -7 62 27T32 113Q32 155 52 182T103 227T170 256T236 280T287 306T307 344V417Q307 449 298 469T270 500T223 511Q202 511 179 505T141 482Q167 475 181 456T196 410Q196 379 176 362T124 344Q91 344
74 365T57 414Q57 442 71 460T110 494Q135 511 174 521T259 531Q303 531 337 522T395 488Q419 465 426 431T433 348V74Q433 49 438 39T458 28Q470 28 479 34T497 47L508 30Q486 13 462 3T404 -7Q347 -7 328 18T308 77Q281 32 243 13T158 -7ZM225 49Q247 49 268
61T307 101V303Q294 283 269 270T219 242T175 201T156 132Q156 89 175 69T225 49ZM130 816Q147 830 168 827T206 804Q222 784 233 758T259 696T305 608L294 599Q252 640 221 664T167 705T129 742Q113 763 114 783T130 816Z" />
<glyph unicode="&#xe1;" horiz-adv-x="511" d="M158 -7Q92 -7 62 27T32 113Q32 155 52 182T103 227T170 256T236 280T287 306T307 344V417Q307 449 298 469T270 500T223 511Q202 511 179 505T141 482Q167 475 181 456T196 410Q196 379 176 362T124 344Q91 344
74 365T57 414Q57 442 71 460T110 494Q135 511 174 521T259 531Q303 531 337 522T395 488Q419 465 426 431T433 348V74Q433 49 438 39T458 28Q470 28 479 34T497 47L508 30Q486 13 462 3T404 -7Q347 -7 328 18T308 77Q281 32 243 13T158 -7ZM225 49Q247 49 268
61T307 101V303Q294 283 269 270T219 242T175 201T156 132Q156 89 175 69T225 49ZM364 816Q379 803 380 783T365 742Q350 723 328 706T274 664T200 599L189 608Q219 660 234 696T261 758T288 804Q304 823 325 826T364 816Z" />
<glyph unicode="&#xe2;" horiz-adv-x="511" d="M158 -7Q92 -7 62 27T32 113Q32 155 52 182T103 227T170 256T236 280T287 306T307 344V417Q307 449 298 469T270 500T223 511Q202 511 179 505T141 482Q167 475 181 456T196 410Q196 379 176 362T124 344Q91 344
74 365T57 414Q57 442 71 460T110 494Q135 511 174 521T259 531Q303 531 337 522T395 488Q419 465 426 431T433 348V74Q433 49 438 39T458 28Q470 28 479 34T497 47L508 30Q486 13 462 3T404 -7Q347 -7 328 18T308 77Q281 32 243 13T158 -7ZM225 49Q247 49 268
61T307 101V303Q294 283 269 270T219 242T175 201T156 132Q156 89 175 69T225 49ZM264 814Q288 760 334 710T439 626L431 612Q375 628 322 650T235 696Q209 673 166 651T79 612L71 626Q128 658 174 709T246 814H264Z" />
<glyph unicode="&#xe3;" horiz-adv-x="511" d="M158 -7Q92 -7 62 27T32 113Q32 155 52 182T103 227T170 256T236 280T287 306T307 344V417Q307 449 298 469T270 500T223 511Q202 511 179 505T141 482Q167 475 181 456T196 410Q196 379 176 362T124 344Q91 344
74 365T57 414Q57 442 71 460T110 494Q135 511 174 521T259 531Q303 531 337 522T395 488Q419 465 426 431T433 348V74Q433 49 438 39T458 28Q470 28 479 34T497 47L508 30Q486 13 462 3T404 -7Q347 -7 328 18T308 77Q281 32 243 13T158 -7ZM225 49Q247 49 268
61T307 101V303Q294 283 269 270T219 242T175 201T156 132Q156 89 175 69T225 49ZM181 780Q210 780 230 770T268 747T302 724T344 714Q365 714 384 726T421 767L435 760Q418 692 385 663T313 633Q284 633 263 643T225 666T191 690T149 700Q128 700 109 688T72 646L58
653Q74 721 108 750T181 780Z" />
<glyph unicode="&#xe4;" horiz-adv-x="511" d="M158 -7Q92 -7 62 27T32 113Q32 155 52 182T103 227T170 256T236 280T287 306T307 344V417Q307 449 298 469T270 500T223 511Q202 511 179 505T141 482Q167 475 181 456T196 410Q196 379 176 362T124 344Q91 344
74 365T57 414Q57 442 71 460T110 494Q135 511 174 521T259 531Q303 531 337 522T395 488Q419 465 426 431T433 348V74Q433 49 438 39T458 28Q470 28 479 34T497 47L508 30Q486 13 462 3T404 -7Q347 -7 328 18T308 77Q281 32 243 13T158 -7ZM225 49Q247 49 268
61T307 101V303Q294 283 269 270T219 242T175 201T156 132Q156 89 175 69T225 49ZM367 755Q395 755 416 734T437 685Q437 656 416 636T367 615Q338 615 318 635T298 685Q298 713 318 734T367 755ZM145 755Q173 755 193 734T214 685Q214 656 193 636T145 615Q116
615 96 635T75 685Q75 713 95 734T145 755Z" />
<glyph unicode="&#xe5;" horiz-adv-x="511" d="M158 -7Q92 -7 62 27T32 113Q32 155 52 182T103 227T170 256T236 280T287 306T307 344V417Q307 449 298 469T270 500T223 511Q202 511 179 505T141 482Q167 475 181 456T196 410Q196 379 176 362T124 344Q91 344
74 365T57 414Q57 442 71 460T110 494Q135 511 174 521T259 531Q303 531 337 522T395 488Q419 465 426 431T433 348V74Q433 49 438 39T458 28Q470 28 479 34T497 47L508 30Q486 13 462 3T404 -7Q347 -7 328 18T308 77Q281 32 243 13T158 -7ZM225 49Q247 49 268
61T307 101V303Q294 283 269 270T219 242T175 201T156 132Q156 89 175 69T225 49ZM255 795Q297 795 328 770T360 700Q360 655 329 630T255 604Q214 604 183 629T151 700Q151 744 182 769T255 795ZM255 774Q228 774 204 755T179 699Q179 662 203 644T255 625Q283
625 307 643T332 699Q332 736 308 755T255 774Z" />
<glyph unicode="&#xe6;" horiz-adv-x="742" d="M158 -7Q92 -7 62 27T32 113Q32 155 52 182T103 227T170 256T236 280T287 306T307 344V417Q307 449 298 469T270 500T223 511Q202 511 179 505T141 482Q167 475 181 456T196 410Q196 379 176 362T124 344Q91 344
74 365T57 414Q57 442 71 460T110 494Q135 511 174 521T259 531Q303 531 337 522T395 488Q418 465 425 431T432 347L338 120Q311 68 281 41T221 3T158 -7ZM223 49Q249 49 273 65T318 121L310 307Q296 285 271 271T219 242T175 201T156 132Q156 89 175 69T223 49ZM520
-14Q456 -14 409 15T335 103T308 251Q308 337 334 400T409 497T528 531Q611 531 658 478T706 309H395L394 328H590Q592 377 585 418T563 485T523 510Q489 510 464 466T433 320L437 314Q435 301 435 286T434 256Q434 187 452 142T500 76T561 55Q592 55 623 72T681
142L700 134Q689 99 666 65T606 8T520 -14Z" />
<glyph unicode="&#xe7;" horiz-adv-x="493" d="M282 531Q319 531 350 523T405 499Q429 484 443 462T457 412Q457 379 437 359T387 339Q356 339 337 357T317 405Q317 434 334 453T375 478Q366 491 347 499T305 508Q275 508 251 493T210 447T183 372T173 269Q173
188 192 141T243 75T309 55Q340 55 378 73T444 144L463 137Q452 102 428 67T364 9T269 -14Q205 -14 153 15T71 105T40 254Q40 342 71 403T157 498T282 531ZM263 4L241 -67Q256 -62 272 -60T308 -57Q340 -57 357 -71T374 -108Q374 -137 355 -154T306 -180T243 -188Q215
-188 194 -185T157 -176L162 -158Q168 -159 179 -160T204 -162Q230 -162 256 -153T283 -120Q283 -93 246 -93Q238 -93 226 -94T204 -100L236 4H263Z" />
<glyph unicode="&#xe8;" horiz-adv-x="505" d="M278 531Q366 531 416 478T466 309H129L128 328H350Q352 377 344 418T319 485T273 510Q235 510 207 466T172 320L176 314Q174 301 174 286T173 256Q173 187 193 142T245 76T311 55Q346 55 382 72T447 142L466 134Q455
99 430 65T364 8T270 -14Q202 -14 150 16T69 105T40 251Q40 342 70 404T155 498T278 531ZM149 816Q166 830 187 827T225 804Q241 784 252 758T278 696T324 608L313 599Q271 640 240 664T186 705T148 742Q132 763 133 783T149 816Z" />
<glyph unicode="&#xe9;" horiz-adv-x="505" d="M278 531Q366 531 416 478T466 309H129L128 328H350Q352 377 344 418T319 485T273 510Q235 510 207 466T172 320L176 314Q174 301 174 286T173 256Q173 187 193 142T245 76T311 55Q346 55 382 72T447 142L466 134Q455
99 430 65T364 8T270 -14Q202 -14 150 16T69 105T40 251Q40 342 70 404T155 498T278 531ZM383 816Q398 803 399 783T384 742Q369 723 347 706T293 664T219 599L208 608Q238 660 253 696T280 758T307 804Q323 823 344 826T383 816Z" />
<glyph unicode="&#xea;" horiz-adv-x="505" d="M278 531Q366 531 416 478T466 309H129L128 328H350Q352 377 344 418T319 485T273 510Q235 510 207 466T172 320L176 314Q174 301 174 286T173 256Q173 187 193 142T245 76T311 55Q346 55 382 72T447 142L466 134Q455
99 430 65T364 8T270 -14Q202 -14 150 16T69 105T40 251Q40 342 70 404T155 498T278 531ZM283 814Q307 760 353 710T458 626L450 612Q394 628 341 650T254 696Q228 673 185 651T98 612L90 626Q147 658 193 709T265 814H283Z" />
<glyph unicode="&#xeb;" horiz-adv-x="505" d="M278 531Q366 531 416 478T466 309H129L128 328H350Q352 377 344 418T319 485T273 510Q235 510 207 466T172 320L176 314Q174 301 174 286T173 256Q173 187 193 142T245 76T311 55Q346 55 382 72T447 142L466 134Q455
99 430 65T364 8T270 -14Q202 -14 150 16T69 105T40 251Q40 342 70 404T155 498T278 531ZM386 755Q414 755 435 734T456 685Q456 656 435 636T386 615Q357 615 337 635T317 685Q317 713 337 734T386 755ZM164 755Q192 755 212 734T233 685Q233 656 212 636T164
615Q135 615 115 635T94 685Q94 713 114 734T164 755Z" />
<glyph unicode="&#xec;" horiz-adv-x="308" d="M220 528V93Q220 51 235 36T288 21V0Q270 1 233 2T158 4Q121 4 83 3T26 0V21Q63 21 78 36T94 93V407Q94 453 80 474T26 496V517Q58 514 88 514Q125 514 158 517T220 528ZM283 816Q300 830 321 827T359 804Q375 784
386 758T412 696T458 608L447 599Q405 640 374 664T320 705T282 742Q266 763 267 783T283 816Z" />
<glyph unicode="&#xed;" horiz-adv-x="308" d="M220 528V93Q220 51 235 36T288 21V0Q270 1 233 2T158 4Q121 4 83 3T26 0V21Q63 21 78 36T94 93V407Q94 453 80 474T26 496V517Q58 514 88 514Q125 514 158 517T220 528ZM261 816Q276 803 277 783T262 742Q247 723
225 706T171 664T97 599L86 608Q116 660 131 696T158 758T185 804Q201 823 222 826T261 816Z" />
<glyph unicode="&#xee;" horiz-adv-x="308" d="M220 528V93Q220 51 235 36T288 21V0Q270 1 233 2T158 4Q121 4 83 3T26 0V21Q63 21 78 36T94 93V407Q94 453 80 474T26 496V517Q58 514 88 514Q125 514 158 517T220 528ZM417 814Q441 760 487 710T592 626L584 612Q528
628 475 650T388 696Q362 673 319 651T232 612L224 626Q281 658 327 709T399 814H417Z" />
<glyph unicode="&#xef;" horiz-adv-x="308" d="M220 528V93Q220 51 235 36T288 21V0Q270 1 233 2T158 4Q121 4 83 3T26 0V21Q63 21 78 36T94 93V407Q94 453 80 474T26 496V517Q58 514 88 514Q125 514 158 517T220 528ZM520 755Q548 755 569 734T590 685Q590 656
569 636T520 615Q491 615 471 635T451 685Q451 713 471 734T520 755ZM298 755Q326 755 346 734T367 685Q367 656 346 636T298 615Q269 615 249 635T228 685Q228 713 248 734T298 755Z" />
<glyph unicode="&#xf0;" horiz-adv-x="562" d="M137 782Q240 746 326 683T464 527T516 304Q516 195 484 124T398 19T278 -15Q208 -15 155 13T71 99T40 251Q40 334 68 397T146 495T264 531Q324 531 358 500T407 403L390 400Q384 446 367 469T329 500T287 508Q254
508 228 483T188 403T173 256Q173 166 187 111T224 31T275 5Q304 5 329 31T369 122T385 300Q385 400 368 474T318 603T237 697T129 765L137 782ZM288 694L305 680L106 583L97 601L288 694ZM444 770L453 752L305 680L288 694L444 770Z" />
<glyph unicode="&#xf1;" horiz-adv-x="608" d="M385 531Q427 531 452 520T494 492Q512 473 519 443T527 362V93Q527 51 542 36T595 21V0Q577 1 540 2T467 4Q430 4 395 3T343 0V21Q375 21 388 36T401 93V396Q401 423 396 444T376 478T333 491Q284 491 252 452T220
353V93Q220 51 233 36T278 21V0Q261 1 227 2T158 4Q121 4 83 3T26 0V21Q63 21 78 36T94 93V408Q94 453 80 474T26 496V517Q58 514 88 514Q125 514 158 517T220 528V428Q245 485 289 508T385 531ZM236 780Q265 780 285 770T323 747T357 724T399 714Q420 714 439
726T476 767L490 760Q473 692 440 663T368 633Q339 633 318 643T280 666T246 690T204 700Q183 700 164 688T127 646L113 653Q129 721 163 750T236 780Z" />
<glyph unicode="&#xf2;" horiz-adv-x="559" d="M280 531Q349 531 402 504T487 416T519 258Q519 160 488 100T403 13T280 -14Q211 -14 157 13T72 100T41 258Q41 356 72 416T157 503T280 531ZM280 511Q233 511 204 452T174 258Q174 124 203 65T280 6Q326 6 356 65T386
258Q386 392 356 451T280 511ZM156 816Q173 830 194 827T232 804Q248 784 259 758T285 696T331 608L320 599Q278 640 247 664T193 705T155 742Q139 763 140 783T156 816Z" />
<glyph unicode="&#xf3;" horiz-adv-x="559" d="M280 531Q349 531 402 504T487 416T519 258Q519 160 488 100T403 13T280 -14Q211 -14 157 13T72 100T41 258Q41 356 72 416T157 503T280 531ZM280 511Q233 511 204 452T174 258Q174 124 203 65T280 6Q326 6 356 65T386
258Q386 392 356 451T280 511ZM390 816Q405 803 406 783T391 742Q376 723 354 706T300 664T226 599L215 608Q245 660 260 696T287 758T314 804Q330 823 351 826T390 816Z" />
<glyph unicode="&#xf4;" horiz-adv-x="559" d="M280 531Q349 531 402 504T487 416T519 258Q519 160 488 100T403 13T280 -14Q211 -14 157 13T72 100T41 258Q41 356 72 416T157 503T280 531ZM280 511Q233 511 204 452T174 258Q174 124 203 65T280 6Q326 6 356 65T386
258Q386 392 356 451T280 511ZM290 814Q314 760 360 710T465 626L457 612Q401 628 348 650T261 696Q235 673 192 651T105 612L97 626Q154 658 200 709T272 814H290Z" />
<glyph unicode="&#xf5;" horiz-adv-x="559" d="M280 531Q349 531 402 504T487 416T519 258Q519 160 488 100T403 13T280 -14Q211 -14 157 13T72 100T41 258Q41 356 72 416T157 503T280 531ZM280 511Q233 511 204 452T174 258Q174 124 203 65T280 6Q326 6 356 65T386
258Q386 392 356 451T280 511ZM207 780Q236 780 256 770T294 747T328 724T370 714Q391 714 410 726T447 767L461 760Q444 692 411 663T339 633Q310 633 289 643T251 666T217 690T175 700Q154 700 135 688T98 646L84 653Q100 721 134 750T207 780Z" />
<glyph unicode="&#xf6;" horiz-adv-x="559" d="M280 531Q349 531 402 504T487 416T519 258Q519 160 488 100T403 13T280 -14Q211 -14 157 13T72 100T41 258Q41 356 72 416T157 503T280 531ZM280 511Q233 511 204 452T174 258Q174 124 203 65T280 6Q326 6 356 65T386
258Q386 392 356 451T280 511ZM393 755Q421 755 442 734T463 685Q463 656 442 636T393 615Q364 615 344 635T324 685Q324 713 344 734T393 755ZM171 755Q199 755 219 734T240 685Q240 656 219 636T171 615Q142 615 122 635T101 685Q101 713 121 734T171 755Z" />
<glyph unicode="&#xf7;" horiz-adv-x="639" d="M320 266Q343 266 359 250T376 211Q376 188 360 172T320 155Q298 155 282 171T265 211Q265 234 281 250T320 266ZM320 554Q343 554 359 538T376 499Q376 476 360 460T320 444Q298 444 282 460T265 499Q265 522 281
538T320 554ZM570 370V340H69V370H570Z" />
<glyph unicode="&#xf8;" horiz-adv-x="559" d="M280 531Q349 531 402 504T487 416T519 258Q519 160 488 100T403 13T280 -14Q211 -14 157 13T72 100T41 258Q41 356 72 416T157 503T280 531ZM280 511Q233 511 204 452T174 258Q174 124 203 65T280 6Q326 6 356 65T386
258Q386 392 356 451T280 511ZM648 466L663 446L433 63L417 84L648 466ZM401 80L416 59L325 -73L305 -59L401 80ZM747 589L766 576L677 446L662 466L747 589Z" />
<glyph unicode="&#xf9;" horiz-adv-x="597" d="M509 528V108Q509 63 524 42T577 20V-1Q546 2 515 2Q478 2 445 -1T383 -12V88Q358 33 315 10T221 -14Q182 -14 156 -4T113 25Q96 44 89 75T82 155V408Q82 453 68 474T14 496V517Q46 514 76 514Q113 514 146 517T208
528V120Q208 93 212 72T231 39T273 26Q320 26 351 65T383 163V408Q383 453 369 474T315 496V517Q347 514 377 514Q414 514 447 517T509 528ZM161 816Q178 830 199 827T237 804Q253 784 264 758T290 696T336 608L325 599Q283 640 252 664T198 705T160 742Q144 763
145 783T161 816Z" />
<glyph unicode="&#xfa;" horiz-adv-x="597" d="M509 528V108Q509 63 524 42T577 20V-1Q546 2 515 2Q478 2 445 -1T383 -12V88Q358 33 315 10T221 -14Q182 -14 156 -4T113 25Q96 44 89 75T82 155V408Q82 453 68 474T14 496V517Q46 514 76 514Q113 514 146 517T208
528V120Q208 93 212 72T231 39T273 26Q320 26 351 65T383 163V408Q383 453 369 474T315 496V517Q347 514 377 514Q414 514 447 517T509 528ZM395 816Q410 803 411 783T396 742Q381 723 359 706T305 664T231 599L220 608Q250 660 265 696T292 758T319 804Q335 823
356 826T395 816Z" />
<glyph unicode="&#xfb;" horiz-adv-x="597" d="M509 528V108Q509 63 524 42T577 20V-1Q546 2 515 2Q478 2 445 -1T383 -12V88Q358 33 315 10T221 -14Q182 -14 156 -4T113 25Q96 44 89 75T82 155V408Q82 453 68 474T14 496V517Q46 514 76 514Q113 514 146 517T208
528V120Q208 93 212 72T231 39T273 26Q320 26 351 65T383 163V408Q383 453 369 474T315 496V517Q347 514 377 514Q414 514 447 517T509 528ZM295 814Q319 760 365 710T470 626L462 612Q406 628 353 650T266 696Q240 673 197 651T110 612L102 626Q159 658 205 709T277
814H295Z" />
<glyph unicode="&#xfc;" horiz-adv-x="597" d="M509 528V108Q509 63 524 42T577 20V-1Q546 2 515 2Q478 2 445 -1T383 -12V88Q358 33 315 10T221 -14Q182 -14 156 -4T113 25Q96 44 89 75T82 155V408Q82 453 68 474T14 496V517Q46 514 76 514Q113 514 146 517T208
528V120Q208 93 212 72T231 39T273 26Q320 26 351 65T383 163V408Q383 453 369 474T315 496V517Q347 514 377 514Q414 514 447 517T509 528ZM398 755Q426 755 447 734T468 685Q468 656 447 636T398 615Q369 615 349 635T329 685Q329 713 349 734T398 755ZM176 755Q204
755 224 734T245 685Q245 656 224 636T176 615Q147 615 127 635T106 685Q106 713 126 734T176 755Z" />
<glyph unicode="&#xfd;" horiz-adv-x="514" d="M506 517V496Q487 492 471 475T439 415L291 9L260 -38L54 440Q35 478 18 487T-10 496V517Q19 514 50 513T114 511Q151 511 185 513T250 517V496Q227 496 209 493T186 477T193 430L318 125L310 121L398 359Q423 429
405 461T338 496V517Q362 515 385 514T430 513Q451 513 471 514T506 517ZM291 9L253 -92Q235 -142 210 -163Q195 -176 174 -182T126 -188Q103 -188 82 -180T46 -156T31 -114Q31 -86 50 -69T102 -52Q131 -52 149 -66T168 -110Q168 -129 157 -144T126 -167Q131 -168
135 -168T143 -169Q172 -169 195 -150T232 -90L268 9H291ZM365 816Q380 803 381 783T366 742Q351 723 329 706T275 664T201 599L190 608Q220 660 235 696T262 758T289 804Q305 823 326 826T365 816Z" />
<glyph unicode="&#xfe;" horiz-adv-x="576" d="M197 783V-84Q197 -129 221 -144T289 -160V-181Q264 -180 221 -179T129 -177Q94 -177 60 -178T9 -181V-160Q43 -160 57 -146T71 -94V663Q71 708 57 729T3 751V772Q35 769 65 769Q102 769 135 772T197 783ZM354 531Q431
531 483 468T535 281Q535 193 508 126T430 23T304 -14Q262 -14 230 2T181 45L191 59Q203 38 224 25T274 12Q323 12 350 43T390 132T402 264Q402 347 391 397T358 469T305 492Q265 492 232 460T193 365L185 393Q201 459 246 495T354 531Z" />
<glyph unicode="&#xff;" horiz-adv-x="514" d="M506 517V496Q487 492 471 475T439 415L291 9L260 -38L54 440Q35 478 18 487T-10 496V517Q19 514 50 513T114 511Q151 511 185 513T250 517V496Q227 496 209 493T186 477T193 430L318 125L310 121L398 359Q423 429
405 461T338 496V517Q362 515 385 514T430 513Q451 513 471 514T506 517ZM291 9L253 -92Q235 -142 210 -163Q195 -176 174 -182T126 -188Q103 -188 82 -180T46 -156T31 -114Q31 -86 50 -69T102 -52Q131 -52 149 -66T168 -110Q168 -129 157 -144T126 -167Q131 -168
135 -168T143 -169Q172 -169 195 -150T232 -90L268 9H291ZM368 755Q396 755 417 734T438 685Q438 656 417 636T368 615Q339 615 319 635T299 685Q299 713 319 734T368 755ZM146 755Q174 755 194 734T215 685Q215 656 194 636T146 615Q117 615 97 635T76 685Q76
713 96 734T146 755Z" />
<glyph unicode="&#x2013;" horiz-adv-x="592" d="M535 310V230H57V310H535Z" />
<glyph unicode="&#x2014;" horiz-adv-x="884" d="M827 310V230H57V310H827Z" />
<glyph unicode="&#x2018;" horiz-adv-x="255" d="M135 456Q112 456 96 465T68 490Q57 506 53 527T48 568Q48 617 73 659T152 726L161 708Q132 695 111 670T86 616Q82 598 86 582Q106 602 138 602Q169 602 190 583T211 529Q211 497 190 477T135 456Z" />
<glyph unicode="&#x2019;" horiz-adv-x="250" d="M119 722Q142 722 158 713T186 688Q197 672 201 651T206 610Q206 561 181 519T102 452L93 470Q122 483 143 508T168 562Q172 580 168 596Q148 576 116 576Q85 576 64 595T43 649Q43 681 64 701T119 722Z" />
<glyph unicode="&#x201a;" horiz-adv-x="268" d="M130 132Q153 132 169 123T197 98Q208 82 212 61T217 20Q217 -29 192 -71T113 -138L104 -120Q133 -107 154 -82T179 -28Q183 -10 179 6Q159 -14 127 -14Q96 -14 75 5T54 59Q54 91 75 111T130 132Z" />
<glyph unicode="&#x201c;" horiz-adv-x="449" d="M135 455Q112 455 96 464T68 489Q57 505 53 526T48 567Q48 616 73 658T152 725L161 707Q132 694 111 669T86 615Q82 597 86 581Q106 601 138 601Q169 601 190 582T211 528Q211 496 190 476T135 455ZM329 455Q306
455 290 464T262 489Q251 505 247 526T242 567Q242 616 267 658T346 725L355 707Q326 694 305 669T280 615Q276 597 280 581Q300 601 332 601Q363 601 384 582T405 528Q405 496 384 476T329 455Z" />
<glyph unicode="&#x201d;" horiz-adv-x="444" d="M313 722Q336 722 352 713T380 688Q391 672 395 651T400 610Q400 561 375 519T296 452L287 470Q316 483 337 508T362 562Q366 580 362 596Q342 576 310 576Q279 576 258 595T237 649Q237 681 258 701T313 722ZM119
722Q142 722 158 713T186 688Q197 672 201 651T206 610Q206 561 181 519T102 452L93 470Q122 483 143 508T168 562Q172 580 168 596Q148 576 116 576Q85 576 64 595T43 649Q43 681 64 701T119 722Z" />
<glyph unicode="&#x201e;" horiz-adv-x="462" d="M324 132Q347 132 363 123T391 98Q402 82 406 61T411 20Q411 -29 386 -71T307 -138L298 -120Q327 -107 348 -82T373 -28Q377 -10 373 6Q353 -14 321 -14Q290 -14 269 5T248 59Q248 91 269 111T324 132ZM130 132Q153
132 169 123T197 98Q208 82 212 61T217 20Q217 -29 192 -71T113 -138L104 -120Q133 -107 154 -82T179 -28Q183 -10 179 6Q159 -14 127 -14Q96 -14 75 5T54 59Q54 91 75 111T130 132Z" />
<glyph unicode="&#x2022;" horiz-adv-x="471" d="M235 429Q280 429 316 408T373 350T395 269Q395 225 374 189T316 132T235 110Q191 110 155 131T97 189T76 269Q76 314 97 350T154 407T235 429Z" />
<glyph unicode="&#x2039;" horiz-adv-x="350" d="M288 531L304 526Q286 470 262 420T210 330T153 260Q182 232 209 191T261 98T304 -9L288 -15Q236 69 174 136T28 254V262Q111 312 173 379T288 531Z" />
<glyph unicode="&#x203a;" horiz-adv-x="351" d="M62 531Q115 447 177 380T323 262V254Q240 204 178 137T62 -15L46 -9Q65 47 89 96T141 187T198 256Q169 285 141 326T89 419T46 526L62 531Z" />
</font>
</defs>
</svg>
